<?xml version="1.0" encoding="UTF-8" standalone="no"?>
<svg
   xmlns:dc="http://purl.org/dc/elements/1.1/"
   xmlns:cc="http://creativecommons.org/ns#"
   xmlns:rdf="http://www.w3.org/1999/02/22-rdf-syntax-ns#"
   xmlns:svg="http://www.w3.org/2000/svg"
   xmlns="http://www.w3.org/2000/svg"
   xmlns:sodipodi="http://sodipodi.sourceforge.net/DTD/sodipodi-0.dtd"
   xmlns:inkscape="http://www.inkscape.org/namespaces/inkscape"
   width="340.13977mm"
   height="182.15802mm"
   viewBox="0 0 340.13978 182.15802"
   version="1.1"
   id="svg8"
   inkscape:version="1.0.1 (0767f8302a, 2020-10-17)"
   sodipodi:docname="收缩约束范围.svg">
  <defs
     id="defs2" />
  <sodipodi:namedview
     id="base"
     pagecolor="#ffffff"
     bordercolor="#666666"
     borderopacity="1.0"
     inkscape:pageopacity="0.0"
     inkscape:pageshadow="2"
     inkscape:zoom="1.5608"
     inkscape:cx="591.82184"
     inkscape:cy="479.66498"
     inkscape:document-units="mm"
     inkscape:current-layer="layer1"
     inkscape:document-rotation="0"
     showgrid="false"
     fit-margin-top="10"
     fit-margin-left="10"
     fit-margin-right="10"
     fit-margin-bottom="10"
     inkscape:window-width="3830"
     inkscape:window-height="2065"
     inkscape:window-x="0"
     inkscape:window-y="40"
     inkscape:window-maximized="1" />
  <metadata
     id="metadata5">
    <rdf:RDF>
      <cc:Work
         rdf:about="">
        <dc:format>image/svg+xml</dc:format>
        <dc:type
           rdf:resource="http://purl.org/dc/dcmitype/StillImage" />
        <dc:title />
      </cc:Work>
    </rdf:RDF>
  </metadata>
  <g
     inkscape:label="图层 1"
     inkscape:groupmode="layer"
     id="layer1"
     transform="translate(-9.0554238,34.113354)">
    <ellipse
       style="fill:#000000;stroke:none;stroke-width:0.517472;stroke-miterlimit:4;stroke-dasharray:none;stroke-dashoffset:0;stop-color:#000000"
       id="path1197"
       cx="95.735146"
       cy="2.8557441"
       rx="1.5797827"
       ry="3.8186183"
       transform="matrix(1,0,-0.37789928,0.92584671,0,0)" />
    <ellipse
       style="fill:#000000;stroke:none;stroke-width:0.517472;stroke-miterlimit:4;stroke-dasharray:none;stroke-dashoffset:0;stop-color:#000000"
       id="path1197-2"
       cx="111.31132"
       cy="28.866535"
       rx="1.5797827"
       ry="3.8186183"
       transform="matrix(1,0,-0.37789927,0.92584672,0,0)" />
    <ellipse
       style="fill:#000000;stroke:none;stroke-width:0.517472;stroke-miterlimit:4;stroke-dasharray:none;stroke-dashoffset:0;stop-color:#000000"
       id="path1197-28"
       cx="128.22162"
       cy="41.316986"
       rx="1.5797827"
       ry="3.8186183"
       transform="matrix(1,0,-0.37789927,0.92584672,0,0)" />
    <ellipse
       style="fill:#000000;stroke:none;stroke-width:0.517472;stroke-miterlimit:4;stroke-dasharray:none;stroke-dashoffset:0;stop-color:#000000"
       id="path1197-9"
       cx="137.86331"
       cy="20.627268"
       rx="1.5797827"
       ry="3.8186183"
       transform="matrix(1,0,-0.37789927,0.92584672,0,0)" />
    <ellipse
       style="fill:#000000;stroke:none;stroke-width:0.517472;stroke-miterlimit:4;stroke-dasharray:none;stroke-dashoffset:0;stop-color:#000000"
       id="path1197-7"
       cx="132.95419"
       cy="12.571095"
       rx="1.5797827"
       ry="3.8186183"
       transform="matrix(1,0,-0.37789927,0.92584672,0,0)" />
    <ellipse
       style="fill:#000000;stroke:none;stroke-width:0.517472;stroke-miterlimit:4;stroke-dasharray:none;stroke-dashoffset:0;stop-color:#000000"
       id="path1197-3"
       cx="115.43159"
       cy="13.303473"
       rx="1.5797827"
       ry="3.8186183"
       transform="matrix(1,0,-0.37789927,0.92584672,0,0)" />
    <ellipse
       style="fill:#000000;stroke:none;stroke-width:0.517472;stroke-miterlimit:4;stroke-dasharray:none;stroke-dashoffset:0;stop-color:#000000"
       id="path1197-6"
       cx="167.14848"
       cy="59.992661"
       rx="1.5797827"
       ry="3.8186183"
       transform="matrix(1,0,-0.37789927,0.92584672,0,0)" />
    <ellipse
       style="fill:#000000;stroke:none;stroke-width:0.517472;stroke-miterlimit:4;stroke-dasharray:none;stroke-dashoffset:0;stop-color:#000000"
       id="path1197-1"
       cx="151.75008"
       cy="72.626205"
       rx="1.5797827"
       ry="3.8186183"
       transform="matrix(1,0,-0.37789927,0.92584672,0,0)" />
    <ellipse
       style="fill:#000000;stroke:none;stroke-width:0.517472;stroke-miterlimit:4;stroke-dasharray:none;stroke-dashoffset:0;stop-color:#000000"
       id="path1197-29"
       cx="105.67235"
       cy="63.288368"
       rx="1.5797827"
       ry="3.8186183"
       transform="matrix(1,0,-0.37789927,0.92584672,0,0)" />
    <ellipse
       style="fill:#000000;stroke:none;stroke-width:0.517472;stroke-miterlimit:4;stroke-dasharray:none;stroke-dashoffset:0;stop-color:#000000"
       id="path1197-31"
       cx="47.416962"
       cy="30.697485"
       rx="1.5797827"
       ry="3.8186183"
       transform="matrix(1,0,-0.37789927,0.92584672,0,0)" />
    <ellipse
       style="fill:#000000;stroke:none;stroke-width:0.517472;stroke-miterlimit:4;stroke-dasharray:none;stroke-dashoffset:0;stop-color:#000000"
       id="path1197-94"
       cx="142.32953"
       cy="-2.9919684"
       rx="1.5797827"
       ry="3.8186183"
       transform="matrix(1,0,-0.37789927,0.92584672,0,0)" />
    <ellipse
       style="fill:#000000;stroke:none;stroke-width:0.517472;stroke-miterlimit:4;stroke-dasharray:none;stroke-dashoffset:0;stop-color:#000000"
       id="path1197-78"
       cx="216.62697"
       cy="84.161179"
       rx="1.5797827"
       ry="3.8186183"
       transform="matrix(1,0,-0.37789927,0.92584672,0,0)" />
    <ellipse
       style="fill:#000000;stroke:none;stroke-width:0.517472;stroke-miterlimit:4;stroke-dasharray:none;stroke-dashoffset:0;stop-color:#000000"
       id="path1197-4"
       cx="137.11633"
       cy="128.10394"
       rx="1.5797827"
       ry="3.8186183"
       transform="matrix(1,0,-0.37789927,0.92584672,0,0)" />
    <ellipse
       style="fill:none;stroke:#0000ff;stroke-width:0.497917;stroke-miterlimit:4;stroke-dasharray:none;stroke-dashoffset:0;stop-color:#000000"
       id="path1280"
       cx="109.59449"
       cy="56.96566"
       rx="90.290108"
       ry="80.830055" />
    <text
       xml:space="preserve"
       style="font-style:normal;font-weight:normal;font-size:8.46667px;line-height:1;font-family:sans-serif;letter-spacing:0px;word-spacing:0px;fill:#000000;fill-opacity:1;stroke:none;stroke-width:0.264583"
       x="178.43216"
       y="121.90748"
       id="text1284"><tspan
         sodipodi:role="line"
         id="tspan1282"
         x="178.43216"
         y="121.90748"
         style="fill:#0000ff;stroke-width:0.264583">用一个简单的规则描述约束，简单但过度</tspan></text>
    <path
       id="path1280-5"
       style="fill:none;stroke:#ff0000;stroke-width:0.497917;stroke-miterlimit:4;stroke-dasharray:none;stroke-dashoffset:0;stop-color:#000000"
       d="m 130.59841,17.971148 c 0,12.451514 0.68373,-16.0474189 13.75073,-19.500712 6.85267,-1.8109985 5.21479,57.882323 2.42456,57.878898 -1.83792,-0.0023 40.10895,22.616846 37.45455,22.338163 C 170.59508,77.256163 141.87866,73.711965 124.713,68.101184 118.86573,66.189943 94.589532,119.87911 87.912604,119.10249 80.614407,118.25361 108.46226,67.807056 82.000003,58.924455 73.957705,56.224892 112.09063,47.82603 113.75988,38.756317 c 0.61865,-3.361345 -12.95704,-6.483691 -12.9579,-10.344379 -0.01,-44.641208 -65.965061,16.901415 -65.520939,-0.06586 0.18212,-6.95777 27.246924,-40.191333 59.884401,-24.5664965 7.491258,3.5863567 14.728548,12.2976435 16.182778,7.9244045 1.63839,-4.92704 10.29735,-0.05986 17.46523,-1.345017 2.99205,-0.5364566 1.78496,3.992713 1.78496,7.612177 z"
       sodipodi:nodetypes="ssssssssssssss" />
    <text
       xml:space="preserve"
       style="font-style:normal;font-weight:normal;font-size:8.46667px;line-height:1;font-family:sans-serif;letter-spacing:0px;word-spacing:0px;fill:#ff0000;fill-opacity:1;stroke:none;stroke-width:0.264583"
       x="155.56339"
       y="21.370455"
       id="text1284-0"><tspan
         sodipodi:role="line"
         id="tspan1282-3"
         x="155.56339"
         y="21.370455"
         style="fill:#ff0000;stroke-width:0.264583">建立复杂的规则去描述约束，复杂但精准</tspan></text>
    <path
       id="path1129"
       style="fill:#cccccc;stroke:none;stroke-width:0.497917;stroke-miterlimit:4;stroke-dasharray:none;stroke-dashoffset:0;stop-color:#000000"
       inkscape:transform-center-x="0.0070733181"
       inkscape:transform-center-y="0.68624287"
       d="m 249.69371,45.218981 -0.91862,-11.135065 -2.77811,1.924779 -4.53025,-6.648819 -3.65047,2.487287 4.54975,6.677444 -2.77511,1.922747 z" />
    <path
       id="path1129-6"
       style="fill:#cccccc;stroke:none;stroke-width:0.497917;stroke-miterlimit:4;stroke-dasharray:none;stroke-dashoffset:0;stop-color:#000000"
       inkscape:transform-center-x="0.0070733181"
       inkscape:transform-center-y="-0.68624317"
       d="m 250.72632,85.428635 -0.91862,11.135067 -2.77811,-1.924779 -4.53025,6.648817 -3.65047,-2.487285 4.54975,-6.677444 -2.77511,-1.922747 z" />
    <text
       xml:space="preserve"
       style="font-style:normal;font-weight:normal;font-size:8.46667px;line-height:1;font-family:sans-serif;letter-spacing:0px;word-spacing:0px;fill:#000000;fill-opacity:1;stroke:none;stroke-width:0.264583;"
       x="212.50934"
       y="66.878853"
       id="text1284-1"><tspan
         sodipodi:role="line"
         x="212.50934"
         y="66.878853"
         style="fill:#000000;stroke-width:0.264583;"
         id="tspan1965">我们需要在两者之间取得一个平衡</tspan></text>
  </g>
</svg>
