<?xml version="1.0" encoding="UTF-8" standalone="no"?>
<svg
   xmlns:dc="http://purl.org/dc/elements/1.1/"
   xmlns:cc="http://creativecommons.org/ns#"
   xmlns:rdf="http://www.w3.org/1999/02/22-rdf-syntax-ns#"
   xmlns:svg="http://www.w3.org/2000/svg"
   xmlns="http://www.w3.org/2000/svg"
   xmlns:sodipodi="http://sodipodi.sourceforge.net/DTD/sodipodi-0.dtd"
   xmlns:inkscape="http://www.inkscape.org/namespaces/inkscape"
   width="236.01106mm"
   height="218.56677mm"
   viewBox="0 0 236.01107 218.56677"
   version="1.1"
   id="svg8"
   inkscape:version="1.0.1 (0767f8302a, 2020-10-17)"
   sodipodi:docname="桌子上放凳子（架构师版本）.svg">
  <defs
     id="defs2" />
  <sodipodi:namedview
     id="base"
     pagecolor="#ffffff"
     bordercolor="#666666"
     borderopacity="1.0"
     inkscape:pageopacity="0.0"
     inkscape:pageshadow="2"
     inkscape:zoom="0.7804"
     inkscape:cx="489.28738"
     inkscape:cy="492.39635"
     inkscape:document-units="mm"
     inkscape:current-layer="layer1"
     inkscape:document-rotation="0"
     showgrid="false"
     fit-margin-top="10"
     fit-margin-left="10"
     fit-margin-right="10"
     fit-margin-bottom="10"
     inkscape:window-width="3830"
     inkscape:window-height="2065"
     inkscape:window-x="0"
     inkscape:window-y="40"
     inkscape:window-maximized="1" />
  <metadata
     id="metadata5">
    <rdf:RDF>
      <cc:Work
         rdf:about="">
        <dc:format>image/svg+xml</dc:format>
        <dc:type
           rdf:resource="http://purl.org/dc/dcmitype/StillImage" />
        <dc:title></dc:title>
      </cc:Work>
    </rdf:RDF>
  </metadata>
  <g
     inkscape:label="图层 1"
     inkscape:groupmode="layer"
     id="layer1"
     transform="translate(-7.3374189,57.863379)">
    <rect
       style="fill:none;stroke:#000000;stroke-width:0.264999;stroke-miterlimit:4;stroke-dasharray:1.06, 0.264999;stroke-dashoffset:0;stop-color:#000000"
       id="rect833"
       width="5.5682497"
       height="37.76012"
       x="28.903231"
       y="38.587769" />
    <path
       style="fill:none;stroke:#000000;stroke-width:0.264583px;stroke-linecap:butt;stroke-linejoin:miter;stroke-opacity:1"
       d="m 17.437243,76.281905 c 0.401192,0.46133 53.327263,0 53.327263,0"
       id="path835"
       sodipodi:nodetypes="cc" />
    <path
       id="rect841"
       style="fill:none;stroke:#000000;stroke-width:0.265;stroke-miterlimit:4;stroke-dasharray:none;stroke-dashoffset:0;stop-color:#000000"
       d="m 32.417852,22.972932 v 2.234489 h 2.336289 l -4.136697,12.420947 2.164726,0.720886 4.376994,-13.141833 h 13.112372 l 4.377,13.141833 2.16421,-0.720886 -4.1367,-12.420947 h 1.49758 v -2.234489 z" />
    <rect
       style="fill:none;stroke:#000000;stroke-width:0.264999;stroke-miterlimit:4;stroke-dasharray:1.06, 0.264999;stroke-dashoffset:0;stop-color:#000000"
       id="rect833-3"
       width="5.5682497"
       height="37.760124"
       x="52.560863"
       y="38.647076" />
    <rect
       style="fill:none;stroke:#000000;stroke-width:0.264999;stroke-miterlimit:4;stroke-dasharray:1.06, 0.264999;stroke-dashoffset:0;stop-color:#000000"
       id="rect833-5"
       width="5.5682497"
       height="37.760124"
       x="136.88661"
       y="-32.116043" />
    <path
       style="fill:none;stroke:#000000;stroke-width:0.264583px;stroke-linecap:butt;stroke-linejoin:miter;stroke-opacity:1"
       d="m 125.42062,5.5780936 c 0.4012,0.46133 53.32727,0 53.32727,0"
       id="path835-6"
       sodipodi:nodetypes="cc" />
    <path
       id="rect841-2"
       style="fill:none;stroke:#000000;stroke-width:0.264999;stroke-miterlimit:4;stroke-dasharray:none;stroke-dashoffset:0;stop-color:#000000"
       d="m 140.40123,-47.730879 v 2.234489 h 2.33629 l -4.1367,12.420947 2.16473,0.720886 4.37699,-13.141833 h 13.11238 l 4.377,13.141833 2.16421,-0.720886 -4.1367,-12.420947 h 1.49758 v -2.234489 z" />
    <rect
       style="fill:none;stroke:#000000;stroke-width:0.264999;stroke-miterlimit:4;stroke-dasharray:1.06, 0.264999;stroke-dashoffset:0;stop-color:#000000"
       id="rect833-3-9"
       width="5.5682497"
       height="37.760128"
       x="160.54424"
       y="-32.056736" />
    <path
       id="rect833-5-1"
       style="fill:#4d4d4d;stroke:#000000;stroke-width:0.497918;stroke-miterlimit:4;stroke-dasharray:none;stroke-dashoffset:0;stop-color:#000000"
       d="m 123.38485,-30.324808 c 0,0 -0.86098,-8.967007 5.1745,-0.04911 0.87468,1.292412 2.17592,-5.148133 3.34064,-4.935159 1.7918,0.327637 4.42466,3.206792 4.42466,3.206792 l 6.13021,-0.01376 c 0,0 1.12762,-1.614863 2.65333,-1.857242 1.12818,-0.179226 1.16095,3.477061 2.44461,3.368312 0.66564,-0.05639 1.84851,0.511715 2.05519,-0.162779 0.65235,-2.128932 1.82033,-7.968201 1.95608,-5.99364 0.22172,3.225053 2.62455,0.836576 2.85159,3.863541 0.12754,1.700449 2.8485,-1.391062 2.97731,0.248913 0.11608,1.477998 1.70048,0.682893 3.12735,0.83439 5.60363,0.594959 5.43158,-1.405557 5.60363,0.594959 0.3927,4.566067 5.59188,-14.412758 5.97908,-10.347268 0.61135,6.418974 5.67787,14.168222 7.10311,8.998433 2.69958,-9.792274 11.61873,0.502849 11.61873,0.502849 v 10.476117 c -1.40748,-0.0085 -3.29145,-7.34527 -5.35729,-4.453592 -2.55954,3.582742 -5.24636,16.5918224 -5.85251,4.354282 -0.13095,-2.643666 -5.33886,-0.04989 -7.88114,-0.06702 -4.38192,-0.02953 -8.31881,-0.03711 -10.81172,0.01083 -1.08371,0.02084 -3.86719,5.048235 -3.8414,3.417175 0.29872,-18.887664 -3.54475,0.0859 -5.27895,0.02087 -1.90757,-0.07153 -3.48044,-6.186132 -5.31954,-6.166816 -1.428,0.015 -2.8627,2.163339 -4.23593,2.199809 -3.76172,0.0999 -7.29666,0.286929 -10.48848,0.596982 -1.40274,0.136263 -2.88924,3.684224 -4.14963,4.089589 -2.41887,0.777949 -3.93677,-5.879827 -5.91008,-4.42024 z"
       sodipodi:nodetypes="cssccssssssssssccsssssssssscc" />
    <path
       id="rect833-5-1-2"
       style="fill:#666666;stroke:#000000;stroke-width:0.314233;stroke-miterlimit:4;stroke-dasharray:none;stroke-dashoffset:0;stop-color:#000000"
       transform="rotate(90)"
       d="m -22.090187,-142.45486 c 0,0 6.007626,2.51775 9.199768,2.74638 2.750833,0.19702 -8.023071,-19.69525 10.2236793,-0.94926 3.17004748,3.25678 8.3108208,-1.79712 8.3108208,-1.79712 v 10.6598 c -2.0699001,-0.0435 -6.8207403,-2.57267 -8.3151799,-1.83494 -1.791907,0.88459 -0.3039045,5.04442 -2.7482389,4.7022 -4.5971953,-0.64365 -11.6527743,-5.47296 -16.6708493,-2.86726 z"
       sodipodi:nodetypes="cssccsscc" />
    <path
       id="rect833-5-1-2-0"
       style="fill:#666666;stroke:#000000;stroke-width:0.314232;stroke-miterlimit:4;stroke-dasharray:none;stroke-dashoffset:0;stop-color:#000000"
       d="m 171.20404,-22.030876 c 0,0 -2.51775,6.007625 -2.74638,9.199768 -0.19702,2.750833 19.69525,-8.023071 0.94926,10.2236794 -3.25678,3.17004663 1.79712,8.3108206 1.79712,8.3108206 h -10.6598 c 0.0435,-2.0699 2.57267,-6.82074 1.83494,-8.3151796 -0.88459,-1.791907 -5.04442,-0.303904 -4.7022,-2.748239 0.64365,-4.597195 5.47296,-11.6527744 2.86726,-16.6708494 z"
       sodipodi:nodetypes="cssccsscc" />
    <rect
       style="fill:none;stroke:#000000;stroke-width:0.264999;stroke-miterlimit:4;stroke-dasharray:1.06, 0.264999;stroke-dashoffset:0;stop-color:#000000"
       id="rect833-5-9"
       width="5.5682497"
       height="37.760128"
       x="138.6676"
       y="41.761005" />
    <path
       style="fill:none;stroke:#000000;stroke-width:0.264583px;stroke-linecap:butt;stroke-linejoin:miter;stroke-opacity:1"
       d="m 127.20161,79.455141 c 0.4012,0.46133 53.32727,0 53.32727,0"
       id="path835-6-3"
       sodipodi:nodetypes="cc" />
    <path
       id="rect841-2-6"
       style="fill:none;stroke:#000000;stroke-width:0.264999;stroke-miterlimit:4;stroke-dasharray:none;stroke-dashoffset:0;stop-color:#000000"
       d="m 142.18222,26.146168 v 2.234489 h 2.33629 l -4.1367,12.420947 2.16473,0.720886 4.37699,-13.141833 h 13.11238 l 4.377,13.141833 2.16421,-0.720886 -4.1367,-12.420947 h 1.49758 v -2.234489 z" />
    <rect
       style="fill:none;stroke:#000000;stroke-width:0.264999;stroke-miterlimit:4;stroke-dasharray:1.06, 0.264999;stroke-dashoffset:0;stop-color:#000000"
       id="rect833-3-9-0"
       width="5.5682497"
       height="37.760128"
       x="162.32523"
       y="41.820309" />
    <rect
       style="fill:#4d4d4d;stroke:#000000;stroke-width:0.497917;stroke-miterlimit:4;stroke-dasharray:none;stroke-dashoffset:0;stop-color:#000000"
       id="rect1065"
       width="66.828873"
       height="11.334846"
       x="115.84062"
       y="41.86488" />
    <ellipse
       style="fill:#4d4d4d;stroke:#000000;stroke-width:0.497917;stroke-miterlimit:4;stroke-dasharray:none;stroke-dashoffset:0;stop-color:#000000"
       id="path1067"
       cx="141.25746"
       cy="65.489326"
       rx="8.344923"
       ry="14.223559" />
    <path
       sodipodi:type="star"
       style="fill:#4d4d4d;stroke:#000000;stroke-width:0.497917;stroke-miterlimit:4;stroke-dasharray:none;stroke-dashoffset:0;stop-color:#000000"
       id="path1069"
       sodipodi:sides="6"
       sodipodi:cx="166.82314"
       sodipodi:cy="56.695919"
       sodipodi:r1="16.267193"
       sodipodi:r2="14.087802"
       sodipodi:arg1="1.063887"
       sodipodi:arg2="1.5874858"
       inkscape:flatsided="true"
       inkscape:rounded="0"
       inkscape:randomized="0"
       d="m 174.72049,70.917498 -16.26493,-0.271478 -7.89735,-14.221579 8.36757,-13.950101 16.26493,0.271478 7.89735,14.221579 z"
       inkscape:transform-center-x="2.2024271e-06"
       transform="matrix(0.61664519,-0.00238792,0.00210997,0.69787786,64.465303,30.656522)" />
    <ellipse
       style="fill:#4d4d4d;stroke:#000000;stroke-width:0.497917;stroke-miterlimit:4;stroke-dasharray:none;stroke-dashoffset:0;stop-color:#000000"
       id="path1073"
       cx="165.63553"
       cy="57.020508"
       rx="3.3130126"
       ry="3.3525152" />
    <rect
       style="fill:none;stroke:#000000;stroke-width:0.264999;stroke-miterlimit:4;stroke-dasharray:1.06, 0.264999;stroke-dashoffset:0;stop-color:#000000"
       id="rect833-1"
       width="5.5682497"
       height="37.760124"
       x="147.4532"
       y="112.67193" />
    <path
       style="fill:none;stroke:#000000;stroke-width:0.264583px;stroke-linecap:butt;stroke-linejoin:miter;stroke-opacity:1"
       d="m 135.98722,150.36606 c 0.40119,0.46133 53.32726,0 53.32726,0"
       id="path835-8"
       sodipodi:nodetypes="cc" />
    <path
       id="rect841-7"
       style="fill:none;stroke:#000000;stroke-width:0.264999;stroke-miterlimit:4;stroke-dasharray:none;stroke-dashoffset:0;stop-color:#000000"
       d="m 150.96783,97.057088 v 2.234489 h 2.33629 l -4.1367,12.420943 2.16473,0.72089 4.37699,-13.141833 h 13.11237 l 4.377,13.141833 2.16421,-0.72089 -4.1367,-12.420943 h 1.49758 v -2.234489 z" />
    <rect
       style="fill:#4d4d4d;stroke:#000000;stroke-width:0.897058;stroke-miterlimit:4;stroke-dasharray:none;stroke-dashoffset:0;stop-color:#000000"
       id="rect1065-0"
       width="66.429733"
       height="37.01223"
       x="166.47021"
       y="112.92101" />
    <path
       id="rect833-5-1-2-2"
       style="fill:#666666;stroke:#000000;stroke-width:0.363128;stroke-miterlimit:4;stroke-dasharray:none;stroke-dashoffset:0;stop-color:#000000"
       d="m 153.01247,112.69646 c 0,0 -2.71065,8.03656 -2.73962,12.31593 -0.0421,6.21699 20.68405,6.28066 0.94693,13.68667 -5.00389,1.87762 2.13197,11.75878 2.13197,11.75878 h -9.8757 c 0.0403,-2.77102 1.46921,-9.76398 0.73329,-11.76462 -0.88241,-2.39887 1.68959,-1.62924 2.03096,-4.90153 0.64207,-6.15436 -1.26209,-14.37742 -3.86138,-21.09523 z"
       sodipodi:nodetypes="cssccsscc" />
    <path
       id="path1129"
       style="fill:#cccccc;stroke:none;stroke-width:0.497917;stroke-miterlimit:4;stroke-dasharray:none;stroke-dashoffset:0;stop-color:#000000"
       inkscape:transform-center-x="-0.89330671"
       inkscape:transform-center-y="0.039591351"
       d="M 96.423452,3.4053409 85.257172,3.020979 86.845337,6.0043303 79.71418,9.7294759 81.759433,13.644765 88.921279,9.9035882 90.50777,12.883734 Z" />
    <path
       id="path1129-3"
       style="fill:#cccccc;stroke:none;stroke-width:0.497917;stroke-miterlimit:4;stroke-dasharray:none;stroke-dashoffset:0;stop-color:#000000"
       inkscape:transform-center-x="-1.5908507"
       inkscape:transform-center-y="0.025173851"
       d="m 102.02968,51.047169 -9.719138,-5.511064 0.02626,3.37964 -8.045503,-2.38e-4 -1.31e-4,4.417301 8.080127,2.39e-4 0.02625,3.376023 z" />
    <path
       id="path1129-7"
       style="fill:#cccccc;stroke:none;stroke-width:0.497917;stroke-miterlimit:4;stroke-dasharray:none;stroke-dashoffset:0;stop-color:#000000"
       inkscape:transform-center-x="-0.6800887"
       inkscape:transform-center-y="-0.0056156504"
       d="m 96.236669,98.873484 -4.820628,-10.079439 -1.911398,2.78733 -6.59958,-4.601701 -2.526518,3.623431 6.627981,4.621506 -1.90933,2.784364 z" />
    <text
       xml:space="preserve"
       style="font-style:normal;font-weight:normal;font-size:8.46667px;line-height:1;font-family:sans-serif;letter-spacing:0px;word-spacing:0px;fill:#000000;fill-opacity:1;stroke:none;stroke-width:0.264583"
       x="38.540684"
       y="90.270256"
       id="text1159"><tspan
         sodipodi:role="line"
         id="tspan1157"
         x="38.540684"
         y="90.270256"
         style="font-size:5.64444px;stroke-width:0.264583">架构</tspan></text>
    <text
       xml:space="preserve"
       style="font-style:normal;font-weight:normal;font-size:8.46667px;line-height:1;font-family:sans-serif;letter-spacing:0px;word-spacing:0px;fill:#000000;fill-opacity:1;stroke:none;stroke-width:0.264583"
       x="209.31799"
       y="63.336388"
       id="text1159-5"><tspan
         sodipodi:role="line"
         id="tspan1157-9"
         x="209.31799"
         y="63.336388"
         style="font-size:5.64444px;stroke-width:0.264583">实现</tspan></text>
  </g>
</svg>
