<?xml version="1.0" encoding="UTF-8" standalone="no"?>
<!-- Created with Inkscape (http://www.inkscape.org/) -->

<svg
   xmlns:dc="http://purl.org/dc/elements/1.1/"
   xmlns:cc="http://creativecommons.org/ns#"
   xmlns:rdf="http://www.w3.org/1999/02/22-rdf-syntax-ns#"
   xmlns:svg="http://www.w3.org/2000/svg"
   xmlns="http://www.w3.org/2000/svg"
   xmlns:sodipodi="http://sodipodi.sourceforge.net/DTD/sodipodi-0.dtd"
   xmlns:inkscape="http://www.inkscape.org/namespaces/inkscape"
   width="137.18481mm"
   height="152.7238mm"
   viewBox="0 0 486.08792 541.14733"
   id="svg2"
   version="1.1"
   inkscape:version="0.92.3 (2405546, 2018-03-11)"
   sodipodi:docname="道和名.svg">
  <defs
     id="defs4">
    <marker
       inkscape:stockid="Arrow1Lend"
       orient="auto"
       refY="0"
       refX="0"
       id="Arrow1Lend"
       style="overflow:visible"
       inkscape:isstock="true">
      <path
         id="path4153"
         d="M 0,0 5,-5 -12.5,0 5,5 Z"
         style="fill:#000000;fill-opacity:1;fill-rule:evenodd;stroke:#000000;stroke-width:1.00000003pt;stroke-opacity:1"
         transform="matrix(-0.8,0,0,-0.8,-10,0)"
         inkscape:connector-curvature="0" />
    </marker>
  </defs>
  <sodipodi:namedview
     id="base"
     pagecolor="#ffffff"
     bordercolor="#666666"
     borderopacity="1.0"
     inkscape:pageopacity="0.0"
     inkscape:pageshadow="2"
     inkscape:zoom="1.4"
     inkscape:cx="290.40726"
     inkscape:cy="209.19311"
     inkscape:document-units="px"
     inkscape:current-layer="layer1"
     showgrid="false"
     inkscape:window-width="1910"
     inkscape:window-height="2062"
     inkscape:window-x="1920"
     inkscape:window-y="42"
     inkscape:window-maximized="0"
     fit-margin-top="5"
     fit-margin-left="5"
     fit-margin-right="5"
     fit-margin-bottom="5" />
  <metadata
     id="metadata7">
    <rdf:RDF>
      <cc:Work
         rdf:about="">
        <dc:format>image/svg+xml</dc:format>
        <dc:type
           rdf:resource="http://purl.org/dc/dcmitype/StillImage" />
        <dc:title></dc:title>
      </cc:Work>
    </rdf:RDF>
  </metadata>
  <g
     inkscape:label="Layer 1"
     inkscape:groupmode="layer"
     id="layer1"
     transform="translate(-85.401801,-1.0742393)">
    <path
       style="opacity:0.86199999;fill:#0000ff;fill-opacity:1;fill-rule:evenodd;stroke:#0000ff;stroke-width:1;stroke-miterlimit:4;stroke-dasharray:3, 1;stroke-dashoffset:0"
       id="path4136"
       d="m 166.32039,58.259134 c 7.69573,-0.679108 15.45863,-0.525231 23.13534,0.332466 3.31695,0.370593 6.61297,0.909196 9.91945,1.363794 24.33139,4.468676 48.1093,11.802229 71.16492,20.719851 5.1644,1.997527 10.24871,4.196252 15.37307,6.294378 16.95306,7.482505 33.73536,15.772847 48.25655,27.437017 7.33075,5.88844 7.89879,6.98042 13.98812,13.61568 1.52796,2.22897 3.20772,4.36114 4.58388,6.68689 3.90226,6.5949 7.24648,16.08235 7.50715,23.82696 0.0555,1.64994 -0.18271,3.2967 -0.27407,4.94505 -0.39924,1.50602 -0.5955,3.08113 -1.19773,4.51808 -2.32118,5.53845 -7.26999,9.27685 -12.45117,11.9526 -16.37706,8.4577 -11.73244,6.65514 -25.9622,9.73506 -4.13517,0.52464 -8.25732,1.16479 -12.40551,1.57391 -9.62991,0.94974 -21.25594,1.47529 -30.85121,1.81255 -16.52695,0.5809 -18.73409,0.40965 -35.45583,0.72884 -6.05629,0.11561 -12.11154,0.28097 -18.16731,0.42146 -5.97304,0.20533 -11.94965,0.32498 -17.91914,0.61601 -19.99024,0.97455 -40.56305,2.29495 -59.70005,8.66523 -3.66407,1.21969 -7.16177,2.89157 -10.74266,4.33735 -9.31329,5.96003 -16.04627,15.00485 -19.95474,25.24704 -0.69403,1.81869 -1.17262,3.71243 -1.75893,5.56864 -1.1282,5.32364 -1.80443,11.0727 1.73063,15.69314 1.6383,2.14131 3.42899,3.14351 5.60581,4.68768 1.3377,0.71486 2.6438,1.49228 4.0131,2.14459 3.39046,1.61516 7.70524,3.2133 11.20153,4.37323 9.4989,3.15133 19.2124,5.29567 28.96349,7.49497 30.49761,6.02928 61.66289,7.0475 92.64715,7.92323 24.60433,0.7658 49.22,0.10228 73.82657,0.31719 5.01444,0.1697 11.99335,-0.043 13.99209,5.83367 0.94852,2.78887 0.48534,5.18926 0.31201,8.06045 -0.35922,1.71207 -0.57875,3.45951 -1.07765,5.1362 -3.02366,10.16166 -9.4837,19.23365 -17.0575,26.52186 -2.52374,2.42858 -5.32667,4.54925 -7.99001,6.82387 -11.74652,7.9041 -12.76364,9.02517 -28.00324,16.45134 -7.00622,3.41408 -18.18753,7.1079 -25.61984,9.17514 -10.88276,3.02695 -15.77904,3.68779 -26.79429,5.72797 -13.83794,2.07246 -28.12332,4.42603 -41.97662,1.07099 -7.0176,-1.69955 -7.88203,-2.66265 -14.02656,-5.99175 -1.79685,-1.57761 -3.78809,-2.95811 -5.39054,-4.73285 -7.26327,-8.04417 -9.98623,-20.05736 -10.69602,-30.56043 -0.22749,-3.36616 -0.0443,-6.74754 -0.0665,-10.12131 0.49209,-3.56359 0.73509,-7.17055 1.47627,-10.69078 2.2925,-10.88828 6.90158,-20.9339 14.61972,-29.07706 7.0673,-7.45649 10.61424,-8.67559 19.50022,-13.91962 6.75619,-3.01605 13.30217,-6.55577 20.26857,-9.04815 7.58053,-2.71209 23.77317,-5.08161 31.44389,-6.03353 16.95364,-2.10393 34.01699,-2.78489 51.06822,-3.51397 19.39954,-0.70024 38.8187,-0.82327 58.227,-0.48253 3.75305,-0.23549 5.12571,-0.0777 8.70496,-1.24334 1.36811,-0.44555 4.89012,-2.80315 3.96833,-1.69837 -1.0535,1.26264 -4.2699,3.86036 -4.40479,2.22147 -0.15549,-1.88908 2.93632,-2.40709 4.27943,-3.74458 1.56,-1.55347 2.94288,-3.2752 4.41431,-4.91281 7.51311,-9.97667 13.34491,-21.35604 15.9894,-33.63389 0.48512,-2.25235 0.69405,-4.55544 1.04107,-6.83315 0.01,-2.10897 0.19891,-4.22475 0.0291,-6.32689 -0.42974,-5.32103 -2.20651,-10.48662 -6.32403,-14.09897 -3.57087,-3.13277 -6.1544,-3.65033 -10.56882,-5.36106 -10.96702,-2.96702 -22.47152,-3.58709 -33.74706,-2.27991 -8.90534,1.03241 -11.99796,2.0992 -20.79715,4.26748 -11.05828,3.56201 -22.06051,7.9134 -31.7957,14.37638 -0.77045,0.51149 -1.07518,1.519 -1.74415,2.15752 -13.14988,12.55131 -2.68243,1.03082 -13.7843,13.90918 -1.44478,2.33727 -3.09595,4.55895 -4.33435,7.01182 -3.05585,6.05263 -4.56864,12.94558 -2.75587,19.62617 1.67594,6.17632 4.43658,9.49558 7.88484,14.95144 2.49002,3.08321 4.8782,6.25153 7.47007,9.24963 6.8352,7.90649 13.28188,14.22275 20.57361,21.78033 7.49618,7.76948 16.98212,17.56897 24.05199,25.68336 3.96787,4.55409 7.71152,9.29878 11.56728,13.94818 10.47978,13.16344 19.07068,27.64864 25.48154,43.20544 3.32748,8.07457 6.19823,16.5011 7.19211,25.23856 0.40174,3.53189 0.0738,7.10894 0.11069,10.66341 -0.81894,3.11893 -1.15005,6.40879 -2.45683,9.35679 -2.69786,6.08622 -7.03551,10.22619 -12.76868,13.47025 -5.71629,3.2345 -11.58902,6.2806 -17.75341,8.54735 -7.26594,2.6718 -17.96743,2.74369 -25.4085,3.21037 -4.79801,-0.2584 -9.61349,-0.2914 -14.39403,-0.77519 -10.05996,-1.01808 -19.64621,-2.93085 -29.38201,-5.64284 -8.98262,-2.50218 -17.94545,-5.61859 -26.2214,-9.97987 -3.68743,-1.94321 -7.07574,-4.40759 -10.61362,-6.61139 -2.81675,-2.55282 -5.8807,-4.85697 -8.45027,-7.65846 -7.44923,-8.12158 -11.92758,-17.68852 -11.71962,-28.87779 0.1961,-10.55089 2.75637,-14.74961 6.41256,-24.67821 2.57603,-4.51226 4.88424,-9.18835 7.72809,-13.53679 3.16609,-4.84117 6.63905,-9.48555 10.27216,-13.98683 12.16144,-15.06754 26.28392,-28.5278 41.83072,-40.06423 5.19306,-3.85349 10.7067,-7.25503 16.06006,-10.88254 16.93868,-10.62053 34.96191,-19.02231 53.90429,-25.31348 7.22162,-2.39846 16.66879,-5.12188 24.34592,-6.28875 2.96044,-0.44996 5.97123,-0.45945 8.95685,-0.68917 2.38318,0.53171 4.95392,0.52671 7.14954,1.59514 8.55255,4.16183 11.53287,16.01475 13.35477,24.22836 2.49905,11.26642 3.06073,20.25665 4.25785,31.82029 2.15035,25.00271 2.43583,50.29917 -2.57447,75.00421 -3.16183,15.59049 -4.70928,18.12705 -10.10295,32.85678 -6.51833,13.26615 -6.68831,14.89189 -14.9288,26.82074 -2.54732,3.68747 -5.21077,7.30905 -8.13822,10.70261 -4.90212,5.68264 -11.35064,11.4969 -17.34124,16.0745 -2.48241,1.89689 -5.15083,3.53713 -7.72625,5.3057 -4.84711,2.80576 -9.62174,5.74066 -14.54134,8.41729 -3.49334,1.90063 -8.60466,4.55666 -12.60458,2.16989 -1.86037,-1.1101 -2.04777,-2.45516 -2.77549,-4.28615 -0.90926,-4.25301 0.25528,-8.22996 1.87998,-12.12546 0.99474,-2.44268 2.82682,-4.34497 4.34821,-6.44849 1.34826,-2.08984 2.5813,-4.25548 3.44062,-6.59276 0.64491,-2.04983 0.78977,-4.1943 0.86038,-6.32727 0.23681,-2.2981 -0.27852,-4.48197 -0.84561,-6.68678 -0.68656,-3.45666 -2.4247,-6.55774 -4.27311,-9.51295 -2.7943,-3.85898 -5.43266,-7.8339 -7.76276,-11.99075 -1.92802,-3.94766 -3.48837,-8.07371 -5.05607,-12.17709 -1.52959,-4.08226 -3.30125,-8.07122 -5.36806,-11.90888 -1.02237,-1.54727 -2.0017,-3.18526 -3.27935,-4.54615 -1.10402,-1.17596 -2.46585,-2.09117 -3.78697,-2.99636 -2.01992,-1.47793 -4.38645,-1.79466 -6.75512,-2.27173 -3.54629,-0.70878 -6.96071,-1.96521 -10.47587,-2.84524 -3.53813,-0.82301 -7.15472,-1.17944 -10.77635,-1.33789 -1.25145,-0.0469 -2.50377,-0.0478 -3.75585,-0.0489 0,0 8.51837,-6.1764 8.51837,-6.1764 v 0 c 1.24913,0.0232 2.49845,0.0473 3.7462,0.11498 3.62899,0.24344 7.24103,0.72374 10.78007,1.58181 3.53017,0.91225 7.0004,2.09735 10.60273,2.68878 2.48195,0.48111 4.85904,1.13342 6.92288,2.68403 1.38281,0.98925 2.78524,1.99299 3.93087,3.26527 1.28712,1.4294 2.25352,3.14258 3.30732,4.73736 2.09946,3.87117 3.86492,7.91322 5.41187,12.03603 1.57263,4.05181 3.12854,8.12442 4.99716,12.04876 2.26138,4.17489 4.92282,8.10982 7.73561,11.93192 1.94155,3.00865 3.80432,6.18508 4.55055,9.72753 0.60596,2.27762 1.28292,4.5329 1.05086,6.922 -0.0722,2.22283 -0.19124,4.45843 -0.7734,6.61708 -0.71568,2.46517 -2.02144,4.66018 -3.32279,6.85938 -1.38032,2.18926 -3.35161,3.94315 -4.47901,6.30466 -1.70852,3.62835 -3.03341,7.38354 -2.35867,11.45839 0.54639,1.50637 0.65002,2.66635 2.21287,3.5282 3.85892,2.12806 8.09205,-1.01183 11.47758,-2.32301 0.47051,-0.18223 -0.84263,0.55526 -1.26394,0.8329 7.46136,-4.96005 9.85016,-6.18314 16.78183,-12.43824 3.14314,-2.83635 6.21646,-5.7693 9.02136,-8.94055 3.00477,-3.39722 5.74861,-7.02584 8.3725,-10.72516 8.45684,-11.923 8.61261,-13.51179 15.31408,-26.8064 5.53127,-14.73821 7.07752,-17.19449 10.36987,-32.81527 5.18517,-24.60137 5.12075,-49.82211 2.49821,-74.73059 -1.43957,-11.6695 -2.04974,-20.00382 -4.94405,-31.27704 -1.99958,-7.78824 -5.40848,-19.09659 -13.54911,-22.98627 -2.08609,-0.99676 -4.50931,-1.02338 -6.76397,-1.53507 -2.8531,0.181 -5.72826,0.14534 -8.55932,0.54299 -7.50908,1.05471 -16.59279,3.59803 -23.65881,5.91207 -14.06217,4.6052 -27.71909,10.41891 -40.63933,17.64627 -5.37511,3.61339 -10.912,6.99703 -16.12533,10.84016 -15.46787,11.4025 -29.49713,24.72291 -41.51972,39.72046 -3.55407,4.43352 -6.94439,9.01191 -10.03278,13.78153 -2.76152,4.26481 -4.99178,8.85101 -7.48767,13.27651 -3.53532,9.74333 -5.97871,13.78652 -6.17467,24.10909 -0.20781,10.94714 4.12499,20.34154 11.32248,28.37871 2.49139,2.78204 5.4721,5.08362 8.20815,7.62543 3.46372,2.20471 6.77379,4.67179 10.39117,6.61414 8.11725,4.35858 17.0773,7.53521 25.92344,9.99021 9.62429,2.67095 19.42312,4.55349 29.3747,5.464 4.80202,0.43936 9.63561,0.40622 14.45341,0.60932 30.05404,-2.3765 -1.98195,0.77983 25.60748,-3.70882 0.77212,-0.12562 1.63358,0.66271 2.32739,0.30136 5.65715,-2.94636 10.21934,-7.11367 13.01576,-12.92053 1.38964,-2.88564 1.81077,-6.14435 2.71616,-9.21652 0.069,-3.54565 0.50872,-7.10348 0.20696,-10.63694 -0.74862,-8.76577 -3.39074,-17.20923 -6.58562,-25.34495 -6.13012,-15.61028 -14.63294,-30.07733 -25.0245,-43.22973 -3.85566,-4.63406 -7.58771,-9.37384 -11.567,-13.90219 -7.26536,-8.26783 -16.55031,-17.6644 -24.32885,-25.48204 -7.6396,-7.67801 -13.9301,-13.55772 -21.18473,-21.49259 -2.71124,-2.96547 -5.2455,-6.08802 -7.86826,-9.13202 -3.7078,-5.44636 -6.69785,-8.77538 -8.53272,-15.07268 -2.01062,-6.9005 -0.40621,-14.07028 2.74424,-20.33786 1.26783,-2.52224 2.95741,-4.80936 4.43611,-7.21404 4.90076,-5.71656 7.7675,-9.69041 14.00026,-14.23602 5.37057,-3.91682 11.05682,-7.38708 16.71952,-10.8682 10.0151,-6.15673 20.77438,-10.92592 32.04369,-14.2681 8.94925,-2.18734 12.01417,-3.24661 21.06924,-4.27629 8.97158,-1.02018 18.23359,-0.8938 27.14825,0.61951 2.45505,0.41676 4.8526,1.12079 7.27891,1.68119 4.66949,1.82 7.25271,2.30952 11.00828,5.6598 4.29136,3.82825 6.06711,9.20915 6.48398,14.79397 0.16111,2.15837 -0.0353,4.32862 -0.053,6.49293 -0.34914,2.32032 -0.55927,4.66586 -1.04741,6.96096 -2.62215,12.32862 -8.39878,23.78532 -15.69332,33.97241 -1.99413,2.33709 -5.62468,6.96348 -8.33249,8.80389 -6.30996,4.28868 -13.16046,9.04117 -20.99507,9.91601 -1.48094,0.16536 -2.97841,0.10552 -4.46762,0.15828 -18.87252,-0.72812 -37.76038,-1.32853 -56.64632,-0.59207 -17.02645,0.65591 -34.04961,1.31897 -50.96369,3.54888 -22.1115,2.91513 -10.91484,1.86764 -31.73613,6.47078 -1.85376,0.40983 -3.7599,0.52984 -5.63986,0.79475 -8.78151,5.05956 -12.37078,6.28292 -19.41401,13.52752 -7.73259,7.95366 -12.45806,17.85522 -14.75598,28.62481 -0.73878,3.46243 -0.95623,7.01588 -1.43435,10.52381 0.0397,3.32065 -0.13124,6.65051 0.11912,9.96194 0.76385,10.10365 3.68113,22.08728 10.6963,29.79267 1.56253,1.71626 3.50089,3.04828 5.25134,4.57242 5.97703,3.25229 6.8232,4.19186 13.65431,5.86924 13.56082,3.32987 27.58072,1.14211 41.14764,-0.85018 4.37687,-0.81102 8.77959,-1.49316 13.1306,-2.43306 9.29847,-2.00863 17.86522,-4.32907 26.8025,-7.61047 4.2198,-1.54933 8.30173,-3.4511 12.4583,-5.16282 1.18168,-0.48663 2.4571,-0.78036 3.55633,-1.43218 3.24519,-1.92433 6.28387,-4.17731 9.4258,-6.26597 2.62554,-2.21805 5.38899,-4.28245 7.87661,-6.65415 7.40088,-7.05602 13.70874,-15.86037 16.61088,-25.76215 0.47308,-1.61409 0.67446,-3.29568 1.01169,-4.94352 0.14981,-2.54825 0.57331,-4.9359 -0.23679,-7.42935 -1.71975,-5.29337 -8.39019,-5.06297 -12.78951,-5.41425 -24.17327,-0.84233 -48.37988,-0.39911 -72.55555,-1.24333 -31.23464,-0.90422 -62.62905,-1.84779 -93.43503,-7.55348 -9.9895,-2.08579 -19.95444,-4.10583 -29.71846,-7.11158 -3.97672,-1.22419 -7.81999,-2.53792 -11.58992,-4.29339 -1.42533,-0.66371 -2.78345,-1.46311 -4.17517,-2.19467 -2.45225,-1.74289 -4.08687,-2.5962 -5.89499,-5.02712 -3.77045,-5.06913 -2.96642,-10.81378 -1.75638,-16.60178 0.61145,-1.9065 1.11525,-3.85095 1.83436,-5.7195 1.66178,-4.31798 4.00102,-9.03805 6.68784,-12.79423 7.94142,-11.10215 16.60469,-15.33537 28.87644,-21.8634 3.538,-1.36975 6.99851,-2.95952 10.614,-4.10926 18.93437,-6.02124 39.42988,-7.12097 59.1335,-8.0117 5.95968,-0.26942 11.9252,-0.38891 17.8878,-0.58336 17.94929,-0.41755 35.91716,-0.56251 53.8558,-1.34628 9.94411,-0.43448 21.37399,-1.08684 31.31498,-2.24523 4.23856,-0.4939 8.44318,-1.24505 12.66478,-1.86757 3.40494,-0.82562 6.72416,-2.17598 10.21483,-2.47684 0.54796,-0.0472 -0.82274,1.7958 -0.30082,1.62233 2.11571,-0.70317 3.93882,-2.11899 5.74167,-3.43063 2.86831,-2.08682 5.15136,-4.48193 6.65627,-7.71119 0.64115,-1.37579 0.88726,-2.90315 1.33089,-4.35472 0.13888,-1.6085 0.42674,-3.21103 0.41664,-4.82548 -0.0478,-7.63535 -3.16643,-17.07032 -6.88003,-23.64026 -1.30697,-2.31223 -2.91452,-4.44116 -4.37178,-6.66174 -5.85724,-6.67839 -6.37845,-7.76452 -13.50797,-13.70746 -14.17016,-11.8118 -30.68422,-20.249752 -47.45301,-27.705587 -5.11314,-2.092676 -10.18247,-4.295787 -15.33943,-6.278029 -23.25624,-8.939269 -47.33863,-16.052178 -71.97286,-19.931066 -3.38763,-0.374962 -6.76654,-0.839596 -10.1629,-1.124885 -7.94592,-0.667446 -16.08352,-0.702074 -23.95922,0.662105 0,0 8.41658,-6.435804 8.41658,-6.435804 z"
       inkscape:connector-curvature="0" />
    <path
       style="fill:none;fill-rule:evenodd;stroke:#000000;stroke-width:4;stroke-linecap:butt;stroke-linejoin:miter;stroke-miterlimit:8;stroke-dasharray:none;stroke-opacity:1"
       d="M 360,18.790775 V 524.50506"
       id="path4138"
       inkscape:connector-curvature="0" />
    <text
       xml:space="preserve"
       style="font-style:normal;font-weight:normal;line-height:0%;font-family:sans-serif;letter-spacing:0px;word-spacing:0px;fill:#000000;fill-opacity:1;stroke:none;stroke-width:1px;stroke-linecap:butt;stroke-linejoin:miter;stroke-opacity:1"
       x="237.85715"
       y="57.362206"
       id="text4140"><tspan
         sodipodi:role="line"
         id="tspan4142"
         x="237.85715"
         y="57.362206"
         style="font-size:27.5px;line-height:1.25;fill:#0000ff">道</tspan></text>
    <path
       style="fill:none;fill-rule:evenodd;stroke:#000000;stroke-width:1px;stroke-linecap:butt;stroke-linejoin:miter;stroke-opacity:1;marker-end:url(#Arrow1Lend)"
       d="M 515.71429,155.21935 H 417.14286"
       id="path4144"
       inkscape:connector-curvature="0" />
    <text
       xml:space="preserve"
       style="font-style:normal;font-weight:normal;line-height:0%;font-family:sans-serif;letter-spacing:0px;word-spacing:0px;fill:#000000;fill-opacity:1;stroke:none;stroke-width:1px;stroke-linecap:butt;stroke-linejoin:miter;stroke-opacity:1"
       x="530.48071"
       y="161.61737"
       id="text4140-3"><tspan
         sodipodi:role="line"
         id="tspan4142-6"
         x="530.48071"
         y="161.61737"
         style="font-size:27.5px;line-height:1.25;fill:#000000">名</tspan></text>
  </g>
</svg>
