<?xml version="1.0" encoding="UTF-8" standalone="no"?>
<svg
   width="219.07585mm"
   height="144.03305mm"
   viewBox="0 0 219.07585 144.03305"
   version="1.1"
   id="svg8"
   inkscape:version="1.2.2 (b0a8486541, 2022-12-01)"
   sodipodi:docname="cc_if.svg"
   xmlns:inkscape="http://www.inkscape.org/namespaces/inkscape"
   xmlns:sodipodi="http://sodipodi.sourceforge.net/DTD/sodipodi-0.dtd"
   xmlns="http://www.w3.org/2000/svg"
   xmlns:svg="http://www.w3.org/2000/svg"
   xmlns:rdf="http://www.w3.org/1999/02/22-rdf-syntax-ns#"
   xmlns:cc="http://creativecommons.org/ns#"
   xmlns:dc="http://purl.org/dc/elements/1.1/">
  <defs
     id="defs2">
    <marker
       style="overflow:visible"
       id="Arrow1Mend"
       refX="0"
       refY="0"
       orient="auto"
       inkscape:stockid="Arrow1Mend"
       inkscape:isstock="true">
      <path
         transform="matrix(-0.4,0,0,-0.4,-4,0)"
         style="fill:#0000ff;fill-opacity:1;fill-rule:evenodd;stroke:#0000ff;stroke-width:1pt;stroke-opacity:1"
         d="M 0,0 5,-5 -12.5,0 5,5 Z"
         id="path1259" />
    </marker>
    <marker
       style="overflow:visible"
       id="Arrow1Mend-3"
       refX="0"
       refY="0"
       orient="auto"
       inkscape:stockid="Arrow1Mend"
       inkscape:isstock="true">
      <path
         transform="matrix(-0.4,0,0,-0.4,-4,0)"
         style="fill:#0000ff;fill-opacity:1;fill-rule:evenodd;stroke:#0000ff;stroke-width:1pt;stroke-opacity:1"
         d="M 0,0 5,-5 -12.5,0 5,5 Z"
         id="path1259-5" />
    </marker>
    <marker
       style="overflow:visible"
       id="Arrow1Mend-36"
       refX="0"
       refY="0"
       orient="auto"
       inkscape:stockid="Arrow1Mend"
       inkscape:isstock="true">
      <path
         transform="matrix(-0.4,0,0,-0.4,-4,0)"
         style="fill:#0000ff;fill-opacity:1;fill-rule:evenodd;stroke:#0000ff;stroke-width:1pt;stroke-opacity:1"
         d="M 0,0 5,-5 -12.5,0 5,5 Z"
         id="path1259-0" />
    </marker>
    <marker
       style="overflow:visible"
       id="Arrow1Mend-3-6"
       refX="0"
       refY="0"
       orient="auto"
       inkscape:stockid="Arrow1Mend"
       inkscape:isstock="true">
      <path
         transform="matrix(-0.4,0,0,-0.4,-4,0)"
         style="fill:#0000ff;fill-opacity:1;fill-rule:evenodd;stroke:#0000ff;stroke-width:1pt;stroke-opacity:1"
         d="M 0,0 5,-5 -12.5,0 5,5 Z"
         id="path1259-5-2" />
    </marker>
    <marker
       style="overflow:visible"
       id="Arrow1Mend-3-6-9"
       refX="0"
       refY="0"
       orient="auto"
       inkscape:stockid="Arrow1Mend"
       inkscape:isstock="true">
      <path
         transform="matrix(-0.4,0,0,-0.4,-4,0)"
         style="fill:#0000ff;fill-opacity:1;fill-rule:evenodd;stroke:#0000ff;stroke-width:1pt;stroke-opacity:1"
         d="M 0,0 5,-5 -12.5,0 5,5 Z"
         id="path1259-5-2-2" />
    </marker>
    <marker
       style="overflow:visible"
       id="Arrow1Mend-3-6-9-8"
       refX="0"
       refY="0"
       orient="auto"
       inkscape:stockid="Arrow1Mend"
       inkscape:isstock="true">
      <path
         transform="matrix(-0.4,0,0,-0.4,-4,0)"
         style="fill:#0000ff;fill-opacity:1;fill-rule:evenodd;stroke:#0000ff;stroke-width:1pt;stroke-opacity:1"
         d="M 0,0 5,-5 -12.5,0 5,5 Z"
         id="path1259-5-2-2-9" />
    </marker>
    <marker
       style="overflow:visible"
       id="Arrow1Mend-3-6-9-4"
       refX="0"
       refY="0"
       orient="auto"
       inkscape:stockid="Arrow1Mend"
       inkscape:isstock="true">
      <path
         transform="matrix(-0.4,0,0,-0.4,-4,0)"
         style="fill:#0000ff;fill-opacity:1;fill-rule:evenodd;stroke:#0000ff;stroke-width:1pt;stroke-opacity:1"
         d="M 0,0 5,-5 -12.5,0 5,5 Z"
         id="path1259-5-2-2-7" />
    </marker>
    <marker
       style="overflow:visible"
       id="Arrow1Mend-3-6-7"
       refX="0"
       refY="0"
       orient="auto"
       inkscape:stockid="Arrow1Mend"
       inkscape:isstock="true">
      <path
         transform="matrix(-0.4,0,0,-0.4,-4,0)"
         style="fill:#0000ff;fill-opacity:1;fill-rule:evenodd;stroke:#0000ff;stroke-width:1pt;stroke-opacity:1"
         d="M 0,0 5,-5 -12.5,0 5,5 Z"
         id="path1259-5-2-5" />
    </marker>
    <marker
       style="overflow:visible"
       id="Arrow1Mend-3-6-7-5"
       refX="0"
       refY="0"
       orient="auto"
       inkscape:stockid="Arrow1Mend"
       inkscape:isstock="true">
      <path
         transform="matrix(-0.4,0,0,-0.4,-4,0)"
         style="fill:#0000ff;fill-opacity:1;fill-rule:evenodd;stroke:#0000ff;stroke-width:1pt;stroke-opacity:1"
         d="M 0,0 5,-5 -12.5,0 5,5 Z"
         id="path1259-5-2-5-6" />
    </marker>
    <marker
       style="overflow:visible"
       id="Arrow1Mend-3-6-8"
       refX="0"
       refY="0"
       orient="auto"
       inkscape:stockid="Arrow1Mend"
       inkscape:isstock="true">
      <path
         transform="matrix(-0.4,0,0,-0.4,-4,0)"
         style="fill:#0000ff;fill-opacity:1;fill-rule:evenodd;stroke:#0000ff;stroke-width:1pt;stroke-opacity:1"
         d="M 0,0 5,-5 -12.5,0 5,5 Z"
         id="path1259-5-2-7" />
    </marker>
    <marker
       style="overflow:visible"
       id="Arrow1Mend-3-6-8-2"
       refX="0"
       refY="0"
       orient="auto"
       inkscape:stockid="Arrow1Mend"
       inkscape:isstock="true">
      <path
         transform="matrix(-0.4,0,0,-0.4,-4,0)"
         style="fill:#0000ff;fill-opacity:1;fill-rule:evenodd;stroke:#0000ff;stroke-width:1pt;stroke-opacity:1"
         d="M 0,0 5,-5 -12.5,0 5,5 Z"
         id="path1259-5-2-7-0" />
    </marker>
    <marker
       style="overflow:visible"
       id="Arrow1Mend-3-6-8-6"
       refX="0"
       refY="0"
       orient="auto"
       inkscape:stockid="Arrow1Mend"
       inkscape:isstock="true">
      <path
         transform="matrix(-0.4,0,0,-0.4,-4,0)"
         style="fill:#0000ff;fill-opacity:1;fill-rule:evenodd;stroke:#0000ff;stroke-width:1pt;stroke-opacity:1"
         d="M 0,0 5,-5 -12.5,0 5,5 Z"
         id="path1259-5-2-7-1" />
    </marker>
    <marker
       style="overflow:visible"
       id="Arrow1Mend-3-6-9-4-9"
       refX="0"
       refY="0"
       orient="auto"
       inkscape:stockid="Arrow1Mend"
       inkscape:isstock="true">
      <path
         transform="matrix(-0.4,0,0,-0.4,-4,0)"
         style="fill:#0000ff;fill-opacity:1;fill-rule:evenodd;stroke:#0000ff;stroke-width:1pt;stroke-opacity:1"
         d="M 0,0 5,-5 -12.5,0 5,5 Z"
         id="path1259-5-2-2-7-3" />
    </marker>
    <marker
       style="overflow:visible"
       id="Arrow1Mend-3-6-9-4-9-0"
       refX="0"
       refY="0"
       orient="auto"
       inkscape:stockid="Arrow1Mend"
       inkscape:isstock="true">
      <path
         transform="matrix(-0.4,0,0,-0.4,-4,0)"
         style="fill:#0000ff;fill-opacity:1;fill-rule:evenodd;stroke:#0000ff;stroke-width:1pt;stroke-opacity:1"
         d="M 0,0 5,-5 -12.5,0 5,5 Z"
         id="path1259-5-2-2-7-3-6" />
    </marker>
  </defs>
  <sodipodi:namedview
     id="base"
     pagecolor="#ffffff"
     bordercolor="#666666"
     borderopacity="1.0"
     inkscape:pageopacity="0.0"
     inkscape:pageshadow="2"
     inkscape:zoom="0.93643601"
     inkscape:cx="424.48175"
     inkscape:cy="271.24117"
     inkscape:document-units="mm"
     inkscape:current-layer="layer1"
     inkscape:document-rotation="0"
     showgrid="false"
     inkscape:window-width="1440"
     inkscape:window-height="831"
     inkscape:window-x="0"
     inkscape:window-y="0"
     inkscape:window-maximized="1"
     fit-margin-top="10"
     fit-margin-left="10"
     fit-margin-right="10"
     fit-margin-bottom="10"
     inkscape:pagecheckerboard="0"
     inkscape:snap-global="true"
     inkscape:showpageshadow="2"
     inkscape:deskcolor="#d1d1d1" />
  <metadata
     id="metadata5">
    <rdf:RDF>
      <cc:Work
         rdf:about="">
        <dc:format>image/svg+xml</dc:format>
        <dc:type
           rdf:resource="http://purl.org/dc/dcmitype/StillImage" />
      </cc:Work>
    </rdf:RDF>
  </metadata>
  <g
     inkscape:label="图层 1"
     inkscape:groupmode="layer"
     id="layer1"
     transform="translate(30.646531,-137.04666)">
    <rect
       style="fill:none;stroke:#000000;stroke-width:0.365001;stroke-miterlimit:4;stroke-dasharray:none;stroke-dashoffset:0;stop-color:#000000"
       id="rect3128-6"
       width="24.900312"
       height="19.248106"
       x="25.056488"
       y="154.48183" />
    <text
       xml:space="preserve"
       style="font-style:normal;font-weight:normal;font-size:8.46667px;line-height:1;font-family:sans-serif;letter-spacing:0px;word-spacing:0px;fill:#000000;fill-opacity:1;stroke:none;stroke-width:0.264583"
       x="32.566315"
       y="165.59262"
       id="text1226-3-8-6"><tspan
         sodipodi:role="line"
         id="tspan1224-6-9-4"
         x="32.566315"
         y="165.59262"
         style="font-size:4.9389px;stroke-width:0.264583">CPU</tspan></text>
    <rect
       style="fill:none;stroke:#000000;stroke-width:0.365001;stroke-miterlimit:4;stroke-dasharray:none;stroke-dashoffset:0;stop-color:#000000"
       id="rect3128-6-36"
       width="24.900312"
       height="19.248106"
       x="71.506264"
       y="154.31334" />
    <text
       xml:space="preserve"
       style="font-style:normal;font-weight:normal;font-size:8.46667px;line-height:1;font-family:sans-serif;letter-spacing:0px;word-spacing:0px;fill:#000000;fill-opacity:1;stroke:none;stroke-width:0.264583"
       x="79.01609"
       y="165.42413"
       id="text1226-3-8-6-7"><tspan
         sodipodi:role="line"
         id="tspan1224-6-9-4-5"
         x="79.01609"
         y="165.42413"
         style="font-size:4.9389px;stroke-width:0.264583">CPU</tspan></text>
    <rect
       style="fill:none;stroke:#000000;stroke-width:0.365001;stroke-miterlimit:4;stroke-dasharray:none;stroke-dashoffset:0;stop-color:#000000"
       id="rect3128-6-35"
       width="24.900312"
       height="19.248106"
       x="123.62516"
       y="153.55165" />
    <text
       xml:space="preserve"
       style="font-style:normal;font-weight:normal;font-size:8.46667px;line-height:1;font-family:sans-serif;letter-spacing:0px;word-spacing:0px;fill:#000000;fill-opacity:1;stroke:none;stroke-width:0.264583"
       x="131.13498"
       y="164.66245"
       id="text1226-3-8-6-62"><tspan
         sodipodi:role="line"
         id="tspan1224-6-9-4-9"
         x="131.13498"
         y="164.66245"
         style="font-size:4.9389px;stroke-width:0.264583">……</tspan></text>
    <rect
       style="fill:#00ffff;stroke:#000000;stroke-width:0.365001"
       id="rect5662-2"
       width="23.338242"
       height="4.6056156"
       x="23.136238"
       y="176.84315" />
    <rect
       style="fill:#00ffff;stroke:#000000;stroke-width:0.365001"
       id="rect5662-2-3"
       width="23.338242"
       height="4.6056156"
       x="46.501041"
       y="220.61372" />
    <rect
       style="fill:#00ffff;stroke:#000000;stroke-width:0.365001"
       id="rect5662-2-6"
       width="23.338242"
       height="4.6056156"
       x="108.69691"
       y="220.17557" />
    <rect
       style="fill:#00ffff;stroke:#000000;stroke-width:0.365001"
       id="rect5662-2-2"
       width="23.338242"
       height="4.6056156"
       x="70.976318"
       y="176.71472" />
    <rect
       style="fill:#00ffff;stroke:#000000;stroke-width:0.365001"
       id="rect5662-2-0"
       width="23.338242"
       height="4.6056156"
       x="123.38361"
       y="175.75452" />
    <path
       style="fill:none;stroke:#0000ff;stroke-width:0.265;stroke-linecap:butt;stroke-linejoin:miter;stroke-miterlimit:4;stroke-dasharray:none;stroke-opacity:1;marker-end:url(#Arrow1Mend-3-6-9-4)"
       d="m 39.202964,181.61072 39.070989,22.03646"
       id="path5950-2-8"
       sodipodi:nodetypes="cc" />
    <path
       style="fill:none;stroke:#0000ff;stroke-width:0.265;stroke-linecap:butt;stroke-linejoin:miter;stroke-miterlimit:4;stroke-dasharray:none;stroke-opacity:1;marker-end:url(#Arrow1Mend-3-6-9-4-9)"
       d="m 81.461349,181.93336 4.526812,18.67133"
       id="path5950-2-8-6"
       sodipodi:nodetypes="cc" />
    <path
       style="fill:none;stroke:#0000ff;stroke-width:0.265;stroke-linecap:butt;stroke-linejoin:miter;stroke-miterlimit:4;stroke-dasharray:none;stroke-opacity:1;marker-end:url(#Arrow1Mend-3-6-9-4-9-0)"
       d="m 134.32867,179.81281 -32.60992,20.94381"
       id="path5950-2-8-6-2"
       sodipodi:nodetypes="cc" />
    <text
       xml:space="preserve"
       style="font-style:normal;font-weight:normal;font-size:8.46667px;line-height:1;font-family:sans-serif;letter-spacing:0px;word-spacing:0px;fill:#000000;fill-opacity:1;stroke:none;stroke-width:0.264583"
       x="-3.8175638"
       y="180.51312"
       id="text1226-6-4-5-9"><tspan
         sodipodi:role="line"
         id="tspan1224-1-5-4-1"
         x="-3.8175638"
         y="180.51312"
         style="font-size:4.9389px;stroke-width:0.264583">本地cache</tspan></text>
    <text
       xml:space="preserve"
       style="font-style:normal;font-weight:normal;font-size:8.46667px;line-height:1;font-family:sans-serif;letter-spacing:0px;word-spacing:0px;fill:#000000;fill-opacity:1;stroke:none;stroke-width:0.264583"
       x="-5.4248605"
       y="225.48973"
       id="text1226-6-4-5-9-7"><tspan
         sodipodi:role="line"
         id="tspan1224-1-5-4-1-5"
         x="-5.4248605"
         y="225.48973"
         style="font-size:4.9389px;stroke-width:0.264583">CPU外第一层Cache</tspan></text>
    <rect
       style="fill:#00ffff;stroke:#000000;stroke-width:0.365001"
       id="rect5662-2-3-3"
       width="23.338242"
       height="4.6056156"
       x="77.284927"
       y="249.09818" />
    <text
       xml:space="preserve"
       style="font-style:normal;font-weight:normal;font-size:8.46667px;line-height:1;font-family:sans-serif;letter-spacing:0px;word-spacing:0px;fill:#000000;fill-opacity:1;stroke:none;stroke-width:0.264583"
       x="15.115748"
       y="253.67619"
       id="text1226-6-4-5-9-7-6"><tspan
         sodipodi:role="line"
         id="tspan1224-1-5-4-1-5-2"
         x="15.115748"
         y="253.67619"
         style="font-size:4.9389px;stroke-width:0.264583">内存体系的下一层Cache</tspan></text>
    <text
       xml:space="preserve"
       style="font-style:normal;font-weight:normal;font-size:3.52778px;line-height:1;font-family:sans-serif;letter-spacing:0px;word-spacing:0px;fill:#0000ff;fill-opacity:1;stroke:none;stroke-width:0.264583"
       x="65.018661"
       y="193.0849"
       id="text1226-6-4-0-6-3"><tspan
         sodipodi:role="line"
         x="65.018661"
         y="193.0849"
         style="font-style:italic;font-variant:normal;font-weight:normal;font-stretch:normal;font-size:3.52778px;font-family:sans-serif;-inkscape-font-specification:'sans-serif Italic';fill:#0000ff;stroke-width:0.264583"
         id="tspan27834">只要符合这一层协议，外面就可以看作是一个真实内存的黑盒</tspan><tspan
         sodipodi:role="line"
         x="65.018661"
         y="196.61269"
         style="font-style:italic;font-variant:normal;font-weight:normal;font-stretch:normal;font-size:3.52778px;font-family:sans-serif;-inkscape-font-specification:'sans-serif Italic';fill:#0000ff;stroke-width:0.264583"
         id="tspan1616">（无论真的对外写出去，还是通过CPU的Cache间同步实现一样的认知）</tspan></text>
    <path
       id="path5030"
       style="fill:#ffff00;stroke:#000000;stroke-width:0.365001"
       d="m 67.523122,201.9595 a 9.2330741,3.4612866 0 0 0 -9.172581,3.07946 9.2330741,3.4612866 0 0 0 -6.596841,-1.03979 9.2330741,3.4612866 0 0 0 -9.23306,3.46125 9.2330741,3.4612866 0 0 0 9.23306,3.46126 9.2330741,3.4612866 0 0 0 2.137956,-0.0958 7.6548574,2.8458475 0 0 0 6.777051,1.52539 7.6548574,2.8458475 0 0 0 3.829839,-0.38179 9.2330741,3.4612866 0 0 0 8.332625,1.97313 9.2330741,3.4612866 0 0 0 7.390128,-1.38817 10.662927,3.979363 0 0 0 9.261917,2.00861 10.662927,3.979363 0 0 0 9.2217,-1.98199 9.2330741,3.4612866 0 0 0 6.576894,1.03299 9.2330741,3.4612866 0 0 0 9.23336,-3.46125 9.2330741,3.4612866 0 0 0 -0.18849,-0.69527 8.2350976,3.0338735 0 0 0 5.44927,-2.85352 8.2350976,3.0338735 0 0 0 -8.235,-3.03392 8.2350976,3.0338735 0 0 0 -5.29455,0.71212 10.494395,3.8275131 0 0 0 -6.892784,-0.94161 10.494395,3.8275131 0 0 0 -8.81769,1.75517 9.2330741,3.4612866 0 0 0 -8.104827,-1.80367 9.2330741,3.4612866 0 0 0 -6.257606,0.91884 9.2330741,3.4612866 0 0 0 -8.650371,-2.25141 z" />
    <text
       xml:space="preserve"
       style="font-style:normal;font-weight:normal;font-size:8.46667px;line-height:1;font-family:sans-serif;letter-spacing:0px;word-spacing:0px;fill:#000000;fill-opacity:1;stroke:none;stroke-width:0.264583"
       x="77.586464"
       y="210.68823"
       id="text1226-6-4-5-9-9"><tspan
         sodipodi:role="line"
         id="tspan1224-1-5-4-1-1"
         x="77.586464"
         y="210.68823"
         style="font-size:4.9389px;stroke-width:0.264583">CC接口</tspan></text>
    <path
       id="path5030-2"
       style="fill:#ffff00;stroke:#000000;stroke-width:0.365001"
       d="m 81.179549,232.11379 a 9.2330741,3.4612866 0 0 0 -9.172585,3.07946 9.2330741,3.4612866 0 0 0 -6.596841,-1.03979 9.2330741,3.4612866 0 0 0 -9.23306,3.46125 9.2330741,3.4612866 0 0 0 9.23306,3.46126 9.2330741,3.4612866 0 0 0 2.137956,-0.0958 7.6548574,2.8458475 0 0 0 6.777051,1.52539 7.6548574,2.8458475 0 0 0 3.829839,-0.38179 9.2330741,3.4612866 0 0 0 8.332617,1.97313 9.2330741,3.4612866 0 0 0 7.39013,-1.38817 10.662927,3.979363 0 0 0 9.261924,2.00861 10.662927,3.979363 0 0 0 9.2217,-1.98199 9.2330741,3.4612866 0 0 0 6.57689,1.03299 9.2330741,3.4612866 0 0 0 9.23336,-3.46125 9.2330741,3.4612866 0 0 0 -0.18849,-0.69527 8.2350976,3.0338735 0 0 0 5.44927,-2.85352 8.2350976,3.0338735 0 0 0 -8.235,-3.03392 8.2350976,3.0338735 0 0 0 -5.29455,0.71212 10.494395,3.8275131 0 0 0 -6.89278,-0.94161 10.494395,3.8275131 0 0 0 -8.81769,1.75517 9.2330741,3.4612866 0 0 0 -8.104834,-1.80367 9.2330741,3.4612866 0 0 0 -6.2576,0.91884 9.2330741,3.4612866 0 0 0 -8.650367,-2.25141 z" />
    <text
       xml:space="preserve"
       style="font-style:normal;font-weight:normal;font-size:8.46667px;line-height:1;font-family:sans-serif;letter-spacing:0px;word-spacing:0px;fill:#000000;fill-opacity:1;stroke:none;stroke-width:0.264583"
       x="82.551376"
       y="241.2818"
       id="text1226-6-4-5-9-9-7"><tspan
         sodipodi:role="line"
         id="tspan1224-1-5-4-1-1-0"
         x="82.551376"
         y="241.2818"
         style="font-size:4.9389px;stroke-width:0.264583">下一层CC接口</tspan></text>
  </g>
</svg>
