<?xml version="1.0" encoding="UTF-8" standalone="no"?>
<svg
   width="182.00267mm"
   height="108.9982mm"
   viewBox="0 0 182.00267 108.9982"
   version="1.1"
   id="svg8"
   inkscape:version="1.2.2 (b0a8486541, 2022-12-01)"
   sodipodi:docname="tso-queue.svg"
   xmlns:inkscape="http://www.inkscape.org/namespaces/inkscape"
   xmlns:sodipodi="http://sodipodi.sourceforge.net/DTD/sodipodi-0.dtd"
   xmlns="http://www.w3.org/2000/svg"
   xmlns:svg="http://www.w3.org/2000/svg"
   xmlns:rdf="http://www.w3.org/1999/02/22-rdf-syntax-ns#"
   xmlns:cc="http://creativecommons.org/ns#"
   xmlns:dc="http://purl.org/dc/elements/1.1/">
  <defs
     id="defs2">
    <marker
       style="overflow:visible"
       id="Arrow1Mend"
       refX="0"
       refY="0"
       orient="auto"
       inkscape:stockid="Arrow1Mend"
       inkscape:isstock="true">
      <path
         transform="matrix(-0.4,0,0,-0.4,-4,0)"
         style="fill:#0000ff;fill-opacity:1;fill-rule:evenodd;stroke:#0000ff;stroke-width:1pt;stroke-opacity:1"
         d="M 0,0 5,-5 -12.5,0 5,5 Z"
         id="path1259" />
    </marker>
    <marker
       style="overflow:visible"
       id="Arrow1Mend-3"
       refX="0"
       refY="0"
       orient="auto"
       inkscape:stockid="Arrow1Mend"
       inkscape:isstock="true">
      <path
         transform="matrix(-0.4,0,0,-0.4,-4,0)"
         style="fill:#0000ff;fill-opacity:1;fill-rule:evenodd;stroke:#0000ff;stroke-width:1pt;stroke-opacity:1"
         d="M 0,0 5,-5 -12.5,0 5,5 Z"
         id="path1259-5" />
    </marker>
    <marker
       style="overflow:visible"
       id="Arrow1Mend-36"
       refX="0"
       refY="0"
       orient="auto"
       inkscape:stockid="Arrow1Mend"
       inkscape:isstock="true">
      <path
         transform="matrix(-0.4,0,0,-0.4,-4,0)"
         style="fill:#0000ff;fill-opacity:1;fill-rule:evenodd;stroke:#0000ff;stroke-width:1pt;stroke-opacity:1"
         d="M 0,0 5,-5 -12.5,0 5,5 Z"
         id="path1259-0" />
    </marker>
    <marker
       style="overflow:visible"
       id="Arrow1Mend-3-6"
       refX="0"
       refY="0"
       orient="auto"
       inkscape:stockid="Arrow1Mend"
       inkscape:isstock="true">
      <path
         transform="matrix(-0.4,0,0,-0.4,-4,0)"
         style="fill:#0000ff;fill-opacity:1;fill-rule:evenodd;stroke:#0000ff;stroke-width:1pt;stroke-opacity:1"
         d="M 0,0 5,-5 -12.5,0 5,5 Z"
         id="path1259-5-2" />
    </marker>
    <marker
       style="overflow:visible"
       id="Arrow1Mend-3-6-9"
       refX="0"
       refY="0"
       orient="auto"
       inkscape:stockid="Arrow1Mend"
       inkscape:isstock="true">
      <path
         transform="matrix(-0.4,0,0,-0.4,-4,0)"
         style="fill:#0000ff;fill-opacity:1;fill-rule:evenodd;stroke:#0000ff;stroke-width:1pt;stroke-opacity:1"
         d="M 0,0 5,-5 -12.5,0 5,5 Z"
         id="path1259-5-2-2" />
    </marker>
    <marker
       style="overflow:visible"
       id="Arrow1Mend-3-6-9-8"
       refX="0"
       refY="0"
       orient="auto"
       inkscape:stockid="Arrow1Mend"
       inkscape:isstock="true">
      <path
         transform="matrix(-0.4,0,0,-0.4,-4,0)"
         style="fill:#0000ff;fill-opacity:1;fill-rule:evenodd;stroke:#0000ff;stroke-width:1pt;stroke-opacity:1"
         d="M 0,0 5,-5 -12.5,0 5,5 Z"
         id="path1259-5-2-2-9" />
    </marker>
    <marker
       style="overflow:visible"
       id="Arrow1Mend-3-6-9-4"
       refX="0"
       refY="0"
       orient="auto"
       inkscape:stockid="Arrow1Mend"
       inkscape:isstock="true">
      <path
         transform="matrix(-0.4,0,0,-0.4,-4,0)"
         style="fill:#0000ff;fill-opacity:1;fill-rule:evenodd;stroke:#0000ff;stroke-width:1pt;stroke-opacity:1"
         d="M 0,0 5,-5 -12.5,0 5,5 Z"
         id="path1259-5-2-2-7" />
    </marker>
    <marker
       style="overflow:visible"
       id="Arrow1Mend-3-6-7"
       refX="0"
       refY="0"
       orient="auto"
       inkscape:stockid="Arrow1Mend"
       inkscape:isstock="true">
      <path
         transform="matrix(-0.4,0,0,-0.4,-4,0)"
         style="fill:#0000ff;fill-opacity:1;fill-rule:evenodd;stroke:#0000ff;stroke-width:1pt;stroke-opacity:1"
         d="M 0,0 5,-5 -12.5,0 5,5 Z"
         id="path1259-5-2-5" />
    </marker>
    <marker
       style="overflow:visible"
       id="Arrow1Mend-3-6-7-5"
       refX="0"
       refY="0"
       orient="auto"
       inkscape:stockid="Arrow1Mend"
       inkscape:isstock="true">
      <path
         transform="matrix(-0.4,0,0,-0.4,-4,0)"
         style="fill:#0000ff;fill-opacity:1;fill-rule:evenodd;stroke:#0000ff;stroke-width:1pt;stroke-opacity:1"
         d="M 0,0 5,-5 -12.5,0 5,5 Z"
         id="path1259-5-2-5-6" />
    </marker>
    <marker
       style="overflow:visible"
       id="Arrow1Mend-3-6-8"
       refX="0"
       refY="0"
       orient="auto"
       inkscape:stockid="Arrow1Mend"
       inkscape:isstock="true">
      <path
         transform="matrix(-0.4,0,0,-0.4,-4,0)"
         style="fill:#0000ff;fill-opacity:1;fill-rule:evenodd;stroke:#0000ff;stroke-width:1pt;stroke-opacity:1"
         d="M 0,0 5,-5 -12.5,0 5,5 Z"
         id="path1259-5-2-7" />
    </marker>
    <marker
       style="overflow:visible"
       id="Arrow1Mend-3-6-8-2"
       refX="0"
       refY="0"
       orient="auto"
       inkscape:stockid="Arrow1Mend"
       inkscape:isstock="true">
      <path
         transform="matrix(-0.4,0,0,-0.4,-4,0)"
         style="fill:#0000ff;fill-opacity:1;fill-rule:evenodd;stroke:#0000ff;stroke-width:1pt;stroke-opacity:1"
         d="M 0,0 5,-5 -12.5,0 5,5 Z"
         id="path1259-5-2-7-0" />
    </marker>
    <marker
       style="overflow:visible"
       id="Arrow1Mend-3-6-7-6"
       refX="0"
       refY="0"
       orient="auto"
       inkscape:stockid="Arrow1Mend"
       inkscape:isstock="true">
      <path
         transform="matrix(-0.4,0,0,-0.4,-4,0)"
         style="fill:#0000ff;fill-opacity:1;fill-rule:evenodd;stroke:#0000ff;stroke-width:1pt;stroke-opacity:1"
         d="M 0,0 5,-5 -12.5,0 5,5 Z"
         id="path1259-5-2-5-2" />
    </marker>
    <marker
       style="overflow:visible"
       id="Arrow1Mend-3-6-7-7"
       refX="0"
       refY="0"
       orient="auto"
       inkscape:stockid="Arrow1Mend"
       inkscape:isstock="true">
      <path
         transform="matrix(-0.4,0,0,-0.4,-4,0)"
         style="fill:#0000ff;fill-opacity:1;fill-rule:evenodd;stroke:#0000ff;stroke-width:1pt;stroke-opacity:1"
         d="M 0,0 5,-5 -12.5,0 5,5 Z"
         id="path1259-5-2-5-0" />
    </marker>
  </defs>
  <sodipodi:namedview
     id="base"
     pagecolor="#ffffff"
     bordercolor="#666666"
     borderopacity="1.0"
     inkscape:pageopacity="0.0"
     inkscape:pageshadow="2"
     inkscape:zoom="0.93643601"
     inkscape:cx="310.21874"
     inkscape:cy="258.42663"
     inkscape:document-units="mm"
     inkscape:current-layer="layer1"
     inkscape:document-rotation="0"
     showgrid="false"
     inkscape:window-width="1440"
     inkscape:window-height="831"
     inkscape:window-x="0"
     inkscape:window-y="0"
     inkscape:window-maximized="1"
     fit-margin-top="10"
     fit-margin-left="10"
     fit-margin-right="10"
     fit-margin-bottom="10"
     inkscape:pagecheckerboard="0"
     inkscape:snap-global="true"
     inkscape:showpageshadow="2"
     inkscape:deskcolor="#d1d1d1" />
  <metadata
     id="metadata5">
    <rdf:RDF>
      <cc:Work
         rdf:about="">
        <dc:format>image/svg+xml</dc:format>
        <dc:type
           rdf:resource="http://purl.org/dc/dcmitype/StillImage" />
      </cc:Work>
    </rdf:RDF>
  </metadata>
  <g
     inkscape:label="图层 1"
     inkscape:groupmode="layer"
     id="layer1"
     transform="translate(0.43200038,-144.17503)">
    <rect
       style="fill:none;stroke:#000000;stroke-width:0.365001;stroke-miterlimit:4;stroke-dasharray:none;stroke-dashoffset:0;stop-color:#000000"
       id="rect3128-6"
       width="24.900312"
       height="19.248106"
       x="41.991402"
       y="154.3858" />
    <text
       xml:space="preserve"
       style="font-style:normal;font-weight:normal;font-size:8.46667px;line-height:1;font-family:sans-serif;letter-spacing:0px;word-spacing:0px;fill:#000000;fill-opacity:1;stroke:none;stroke-width:0.264583"
       x="49.501228"
       y="165.4966"
       id="text1226-3-8-6"><tspan
         sodipodi:role="line"
         id="tspan1224-6-9-4"
         x="49.501228"
         y="165.4966"
         style="font-size:4.9389px;stroke-width:0.264583">CPU</tspan></text>
    <rect
       style="fill:none;stroke:#000000;stroke-width:0.365001;stroke-miterlimit:4;stroke-dasharray:none;stroke-dashoffset:0;stop-color:#000000"
       id="rect3128-6-36"
       width="24.900312"
       height="19.248106"
       x="88.441177"
       y="154.21732" />
    <text
       xml:space="preserve"
       style="font-style:normal;font-weight:normal;font-size:8.46667px;line-height:1;font-family:sans-serif;letter-spacing:0px;word-spacing:0px;fill:#000000;fill-opacity:1;stroke:none;stroke-width:0.264583"
       x="95.951004"
       y="165.32811"
       id="text1226-3-8-6-7"><tspan
         sodipodi:role="line"
         id="tspan1224-6-9-4-5"
         x="95.951004"
         y="165.32811"
         style="font-size:4.9389px;stroke-width:0.264583">CPU</tspan></text>
    <rect
       style="fill:none;stroke:#000000;stroke-width:0.365001;stroke-miterlimit:4;stroke-dasharray:none;stroke-dashoffset:0;stop-color:#000000"
       id="rect3128-6-35"
       width="24.900312"
       height="19.248106"
       x="140.56007"
       y="153.45563" />
    <text
       xml:space="preserve"
       style="font-style:normal;font-weight:normal;font-size:8.46667px;line-height:1;font-family:sans-serif;letter-spacing:0px;word-spacing:0px;fill:#000000;fill-opacity:1;stroke:none;stroke-width:0.264583"
       x="148.0699"
       y="164.56642"
       id="text1226-3-8-6-62"><tspan
         sodipodi:role="line"
         id="tspan1224-6-9-4-9"
         x="148.0699"
         y="164.56642"
         style="font-size:4.9389px;stroke-width:0.264583">……</tspan></text>
    <path
       id="path5030"
       style="opacity:1;fill:#ffff00;stroke:#000000;stroke-width:0.365001"
       d="m 78.330539,216.97552 a 15.541711,6.0482691 0 0 0 -15.439885,5.38107 15.541711,6.0482691 0 0 0 -11.104232,-1.81694 15.541711,6.0482691 0 0 0 -15.541687,6.04821 15.541711,6.0482691 0 0 0 15.541687,6.04821 15.541711,6.0482691 0 0 0 3.598747,-0.16744 12.885154,4.9728479 0 0 0 11.407573,2.66547 12.885154,4.9728479 0 0 0 6.446634,-0.66714 15.541711,6.0482691 0 0 0 14.026017,3.44785 15.541711,6.0482691 0 0 0 12.439545,-2.42569 17.948532,6.9535584 0 0 0 15.590272,3.50986 17.948532,6.9535584 0 0 0 15.52256,-3.46335 15.541711,6.0482691 0 0 0 11.07065,1.80506 15.541711,6.0482691 0 0 0 15.5422,-6.04821 15.541711,6.0482691 0 0 0 -0.31729,-1.21491 13.861852,5.3014054 0 0 0 9.17257,-4.98626 13.861852,5.3014054 0 0 0 -13.86169,-5.30149 13.861852,5.3014054 0 0 0 -8.91212,1.24437 17.664848,6.6882152 0 0 0 -11.60239,-1.64538 17.664848,6.6882152 0 0 0 -14.84251,3.067 15.541711,6.0482691 0 0 0 -13.64257,-3.15175 15.541711,6.0482691 0 0 0 -10.533214,1.60559 15.541711,6.0482691 0 0 0 -14.560867,-3.93413 z" />
    <rect
       style="fill:#808000;stroke:#000000;stroke-width:0.365001"
       id="rect5662-6"
       width="4.4343567"
       height="2.9328246"
       x="46.861191"
       y="181.92894" />
    <rect
       style="fill:#808000;stroke:#000000;stroke-width:0.365001"
       id="rect5662-7-10"
       width="4.4343567"
       height="2.9328246"
       x="46.861191"
       y="184.86176" />
    <rect
       style="fill:#808000;stroke:#000000;stroke-width:0.365001"
       id="rect5662-7-10-7"
       width="4.4343567"
       height="2.9328246"
       x="46.995491"
       y="187.99525" />
    <rect
       style="fill:#808000;stroke:#000000;stroke-width:0.365001"
       id="rect5662-6-5"
       width="4.4343567"
       height="2.9328246"
       x="46.94931"
       y="190.81714" />
    <rect
       style="fill:#808000;stroke:#000000;stroke-width:0.365001"
       id="rect5662-7-10-3"
       width="4.4343567"
       height="2.9328246"
       x="46.94931"
       y="193.74995" />
    <rect
       style="fill:#808000;stroke:#000000;stroke-width:0.365001"
       id="rect5662-7-10-7-5"
       width="4.4343567"
       height="2.9328246"
       x="47.083611"
       y="196.88345" />
    <path
       style="fill:none;stroke:#0000ff;stroke-width:0.265;stroke-linecap:butt;stroke-linejoin:miter;stroke-miterlimit:4;stroke-dasharray:none;stroke-opacity:1;marker-end:url(#Arrow1Mend-3-6-7)"
       d="m 44.989862,173.42306 3.778681,8.50589"
       id="path5950-3"
       sodipodi:nodetypes="cc" />
    <path
       style="fill:none;stroke:#0000ff;stroke-width:0.265;stroke-linecap:butt;stroke-linejoin:miter;stroke-miterlimit:4;stroke-dasharray:none;stroke-opacity:1;marker-end:url(#Arrow1Mend-3-6-7-6)"
       d="m 54.291769,173.81227 14.764742,42.48057"
       id="path5950-3-9"
       sodipodi:nodetypes="cc" />
    <text
       xml:space="preserve"
       style="font-style:normal;font-weight:normal;font-size:8.46667px;line-height:1;font-family:sans-serif;letter-spacing:0px;word-spacing:0px;fill:#000000;fill-opacity:1;stroke:none;stroke-width:0.264583"
       x="28.008316"
       y="185.77887"
       id="text1226-6-4-5"><tspan
         sodipodi:role="line"
         id="tspan1224-1-5-4"
         x="28.008316"
         y="185.77887"
         style="font-size:4.9389px;stroke-width:0.264583">写队列</tspan></text>
    <text
       xml:space="preserve"
       style="font-style:normal;font-weight:normal;font-size:8.46667px;line-height:1;font-family:sans-serif;letter-spacing:0px;word-spacing:0px;fill:#000000;fill-opacity:1;stroke:none;stroke-width:0.264583"
       x="92.541214"
       y="231.17239"
       id="text1226-6-4-5-3-3"><tspan
         sodipodi:role="line"
         id="tspan1224-1-5-4-6-6"
         x="92.541214"
         y="231.17239"
         style="font-size:4.9389px;stroke-width:0.264583">CC接口</tspan></text>
    <text
       xml:space="preserve"
       style="font-style:normal;font-weight:normal;font-size:3.52778px;line-height:1;font-family:sans-serif;letter-spacing:0px;word-spacing:0px;fill:#0000ff;fill-opacity:1;stroke:none;stroke-width:0.264583"
       x="16.078037"
       y="212.61902"
       id="text1226-6-4-0-6-3"><tspan
         sodipodi:role="line"
         x="16.078037"
         y="212.61902"
         style="font-style:italic;font-variant:normal;font-weight:normal;font-stretch:normal;font-size:3.52778px;font-family:sans-serif;-inkscape-font-specification:'sans-serif Italic';fill:#0000ff;stroke-width:0.264583"
         id="tspan27834">写需要排队进入CC接口</tspan></text>
    <text
       xml:space="preserve"
       style="font-style:normal;font-weight:normal;font-size:3.52778px;line-height:1;font-family:sans-serif;letter-spacing:0px;word-spacing:0px;fill:#0000ff;fill-opacity:1;stroke:none;stroke-width:0.264583"
       x="64.698418"
       y="195.17923"
       id="text1226-6-4-0-6-3-1"><tspan
         sodipodi:role="line"
         x="64.698418"
         y="195.17923"
         style="font-style:italic;font-variant:normal;font-weight:normal;font-stretch:normal;font-size:3.52778px;font-family:sans-serif;-inkscape-font-specification:'sans-serif Italic';fill:#0000ff;stroke-width:0.264583"
         id="tspan27834-2">读如果不在队列中直接就进入CC接口，不参与排队</tspan></text>
    <path
       style="fill:none;stroke:#0000ff;stroke-width:0.265;stroke-linecap:butt;stroke-linejoin:miter;stroke-miterlimit:4;stroke-dasharray:none;stroke-opacity:1;marker-end:url(#Arrow1Mend-3-6-7-7)"
       d="m 49.946572,200.14726 8.271775,19.5968"
       id="path5950-3-93"
       sodipodi:nodetypes="cc" />
  </g>
</svg>
