<?xml version="1.0" encoding="UTF-8" standalone="no"?>
<!-- Created with Inkscape (http://www.inkscape.org/) -->

<svg
   width="36.238277mm"
   height="35.595707mm"
   viewBox="0 0 36.238277 35.595707"
   version="1.1"
   id="svg5"
   inkscape:version="1.1.2 (0a00cf5339, 2022-02-04)"
   sodipodi:docname="logo.svg"
   xmlns:inkscape="http://www.inkscape.org/namespaces/inkscape"
   xmlns:sodipodi="http://sodipodi.sourceforge.net/DTD/sodipodi-0.dtd"
   xmlns:xlink="http://www.w3.org/1999/xlink"
   xmlns="http://www.w3.org/2000/svg"
   xmlns:svg="http://www.w3.org/2000/svg">
  <sodipodi:namedview
     id="namedview7"
     pagecolor="#ffffff"
     bordercolor="#666666"
     borderopacity="1.0"
     inkscape:pageshadow="2"
     inkscape:pageopacity="0.0"
     inkscape:pagecheckerboard="0"
     inkscape:document-units="mm"
     showgrid="false"
     inkscape:zoom="1.8116734"
     inkscape:cx="117.01888"
     inkscape:cy="206.71496"
     inkscape:window-width="1920"
     inkscape:window-height="1136"
     inkscape:window-x="0"
     inkscape:window-y="0"
     inkscape:window-maximized="1"
     inkscape:current-layer="text3350"
     inkscape:snap-global="false" />
  <defs
     id="defs2">
    <linearGradient
       inkscape:collect="always"
       id="linearGradient33229">
      <stop
         style="stop-color:#000000;stop-opacity:1"
         offset="0"
         id="stop33225" />
      <stop
         style="stop-color:#999999;stop-opacity:0;"
         offset="1"
         id="stop33227" />
    </linearGradient>
    <linearGradient
       inkscape:collect="always"
       xlink:href="#linearGradient33229"
       id="linearGradient32936"
       x1="77.319115"
       y1="115.36655"
       x2="166.177"
       y2="135.70598"
       gradientUnits="userSpaceOnUse" />
    <linearGradient
       inkscape:collect="always"
       xlink:href="#linearGradient33229"
       id="linearGradient978"
       gradientUnits="userSpaceOnUse"
       x1="77.319115"
       y1="115.36655"
       x2="166.177"
       y2="135.70598"
       gradientTransform="translate(-12.337833,9.3821608)" />
    <linearGradient
       inkscape:collect="always"
       xlink:href="#linearGradient33229"
       id="linearGradient980"
       gradientUnits="userSpaceOnUse"
       x1="77.319115"
       y1="115.36655"
       x2="166.177"
       y2="135.70598"
       gradientTransform="translate(-12.337833,9.3821608)" />
    <linearGradient
       inkscape:collect="always"
       xlink:href="#linearGradient33229"
       id="linearGradient1266"
       gradientUnits="userSpaceOnUse"
       x1="77.319115"
       y1="115.36655"
       x2="166.177"
       y2="135.70598"
       gradientTransform="translate(3.9631131,2.4894137)" />
    <linearGradient
       inkscape:collect="always"
       xlink:href="#linearGradient33229"
       id="linearGradient1268"
       gradientUnits="userSpaceOnUse"
       x1="77.319115"
       y1="115.36655"
       x2="166.177"
       y2="135.70598"
       gradientTransform="translate(3.9631131,2.4894137)" />
    <linearGradient
       inkscape:collect="always"
       xlink:href="#linearGradient33229"
       id="linearGradient1270"
       gradientUnits="userSpaceOnUse"
       x1="77.319115"
       y1="115.36655"
       x2="166.177"
       y2="135.70598"
       gradientTransform="translate(3.9631131,2.4894137)" />
    <linearGradient
       inkscape:collect="always"
       xlink:href="#linearGradient33229"
       id="linearGradient1272"
       gradientUnits="userSpaceOnUse"
       x1="77.319115"
       y1="115.36655"
       x2="166.177"
       y2="135.70598"
       gradientTransform="translate(3.9631131,2.4894137)" />
    <linearGradient
       inkscape:collect="always"
       xlink:href="#linearGradient33229"
       id="linearGradient1274"
       gradientUnits="userSpaceOnUse"
       x1="77.319115"
       y1="115.36655"
       x2="166.177"
       y2="135.70598"
       gradientTransform="translate(3.9631131,2.4894137)" />
    <linearGradient
       inkscape:collect="always"
       xlink:href="#linearGradient33229"
       id="linearGradient1276"
       gradientUnits="userSpaceOnUse"
       x1="77.319115"
       y1="115.36655"
       x2="166.177"
       y2="135.70598"
       gradientTransform="translate(3.9631131,2.4894137)" />
  </defs>
  <g
     inkscape:label="图层 1"
     inkscape:groupmode="layer"
     id="layer1"
     transform="translate(-74.064123,-93.658924)">
    <path
       style="opacity:0.452826;fill:#a02c2c;stroke:none;stroke-width:0.389114;stop-color:#000000"
       sodipodi:type="inkscape:offset"
       inkscape:radius="1.8902736"
       inkscape:original="M 92.113281 95.529297 A 16.228746 15.907167 0 0 0 75.884766 111.4375 A 16.228746 15.907167 0 0 0 92.113281 127.34375 A 16.228746 15.907167 0 0 0 108.3418 111.4375 A 16.228746 15.907167 0 0 0 92.113281 95.529297 z "
       xlink:href="#ellipse32818"
       id="path32820"
       inkscape:href="#ellipse32818"
       d="m 92.113281,93.638672 c -4.733895,6.6e-5 -9.441243,1.909858 -12.798828,5.201172 -3.357585,3.291316 -5.320623,7.928146 -5.320312,12.597656 2.74e-4,4.66915 1.962785,9.3068 5.320312,12.59766 3.357527,3.29085 8.065303,5.19915 12.798828,5.19922 4.733527,-7e-5 9.441299,-1.90837 12.798829,-5.19922 3.35753,-3.29086 5.32004,-7.92851 5.32031,-12.59766 3.1e-4,-4.66952 -1.96272,-9.30634 -5.32031,-12.597656 -3.35759,-3.291314 -8.064932,-5.201107 -12.798829,-5.201172 z"
       transform="translate(0.06998243,0.02025225)" />
    <ellipse
       style="opacity:0.452826;fill:#999999;stroke:none;stroke-width:0.275302;stop-color:#000000"
       id="ellipse32818"
       cx="92.112892"
       cy="111.43719"
       rx="16.228746"
       ry="15.907167" />
    <ellipse
       style="opacity:0.452826;fill:#9b9bff;fill-opacity:1;stroke:none;stroke-width:0.275302;stop-color:#000000"
       id="path2408"
       cx="92.112892"
       cy="111.43719"
       rx="16.228746"
       ry="15.907167" />
    <g
       aria-label="Kenneth Lee"
       id="text3350"
       style="font-size:8.46667px;line-height:1.25;letter-spacing:0px;word-spacing:0px;fill:url(#linearGradient32936);stroke-width:0.265"
       transform="matrix(0.70501574,0,0,0.71001446,22.011946,27.319019)">
      <path
         d="m 98.50909,124.73703 -0.248356,-1.85138 c -0.880534,1.24178 -1.377245,1.6256 -2.144891,1.6256 -0.790223,0 -1.580446,-0.65475 -2.235202,-1.85138 -0.654756,-1.2192 -0.970845,-1.98684 -2.122313,-5.21547 L 90.493971,113.99 c 3.544715,-3.00285 4.447827,-3.58987 5.44125,-3.58987 0.4064,0 0.699912,0.0677 1.33209,0.33867 l 0.835379,-1.67076 c -0.564445,-0.22578 -0.857957,-0.29351 -1.264357,-0.29351 -0.72249,0 -1.196623,0.22577 -2.235202,1.08373 l -4.741338,3.88338 c -0.06773,0.0677 -0.338667,0.27094 -0.72249,0.56445 l 1.174046,-4.71876 c 0.654756,-0.18062 0.835378,-0.29351 1.174045,-0.69991 -1.016001,-0.0677 -1.490135,-0.0903 -2.05458,-0.0903 -1.783646,0 -3.228625,0.24836 -4.222048,0.72249 -1.693335,0.83538 -2.619025,2.16747 -2.619025,3.79307 0,0.58703 0.09031,0.92569 0.383822,1.69334 l 1.85138,-0.79022 c -0.361245,-0.88054 -0.496712,-1.44498 -0.496712,-2.14489 0,-1.58045 1.12889,-2.43841 3.228626,-2.43841 0.248356,0 0.6096,0.0226 1.083734,0.0677 l -0.677334,2.77707 c -0.699912,2.82222 -1.016001,3.99627 -1.377246,5.03485 -0.880534,2.50613 -1.715912,3.31893 -3.454403,3.31893 h -0.857957 l -0.993423,0.97085 h 3.093159 c 1.986846,0 2.032002,-0.0226 3.567292,-0.97085 h -2.731913 c 2.754491,-2.75449 3.115736,-3.34151 3.838226,-6.16374 0.04516,0.15805 0.112889,0.31609 0.158044,0.49671 0.135467,0.38383 0.135467,0.4064 0.406401,1.24178 l 0.4064,1.35467 c 0.970846,3.16089 1.64818,4.71876 2.46098,5.64445 0.993424,1.12889 2.370669,1.71591 4.041427,1.71591 0.745067,0 1.151468,-0.0677 1.986846,-0.38382 z"
         style="font-size:22.5778px;fill:#008080"
         id="path838" />
      <path
         d="m 96.352903,121.20361 v -0.16369 c -0.208844,0.16933 -0.609599,0.51364 -0.897466,0.51364 -0.316088,0 -0.344311,-0.33866 -0.338666,-0.5588 0.129822,-0.0621 0.682977,-0.47977 0.795866,-0.56444 0.208844,-0.16933 0.361244,-0.34996 0.361244,-0.61525 0,-0.18626 -0.112889,-0.32737 -0.321733,-0.32737 -0.2032,0 -0.378178,0.1016 -0.581377,0.25964 -0.496711,0.38382 -0.671689,1.016 -0.671689,1.54658 0,0.34431 0.141111,0.58702 0.485422,0.58702 0.434622,0 0.936977,-0.44591 1.168399,-0.67733 z m -0.496711,-1.23049 c 0,0.4064 -0.462844,0.63782 -0.733777,0.84667 0.02258,-0.28223 0.237067,-1.08374 0.5588,-1.08374 0.124177,0 0.174977,0.11289 0.174977,0.23707 z"
         style="font-size:5.64444px;fill:url(#linearGradient1266)"
         id="path840" />
      <path
         d="m 99.050937,121.07943 c -0.564444,0.32173 -0.587022,0.33302 -0.643467,0.33302 -0.05644,0 -0.09031,-0.0621 -0.09031,-0.1524 0,-0.11853 0.03951,-0.3048 0.146756,-0.69426 0.265289,-0.94827 0.265289,-0.94827 0.265289,-0.98778 0,-0.0621 -0.03951,-0.096 -0.112889,-0.096 -0.08467,0 -0.208845,0.0508 -0.412044,0.18062 l -0.773289,0.47978 c 0.0508,-0.18626 0.135467,-0.54186 0.135467,-0.58702 0,-0.0395 -0.03387,-0.0734 -0.07338,-0.0734 -0.06209,0 -0.468488,0.20885 -0.886177,0.4572 l -0.03387,0.14676 c 0.361245,-0.16369 0.383822,-0.16934 0.434622,-0.16934 0.03951,0 0.06773,0.0339 0.06773,0.079 0,0.11853 -0.107245,0.58702 -0.248356,1.10066 l -0.129822,0.4572 -0.07902,0.3048 0.423333,-0.16369 0.333022,-1.32644 c 0.705555,-0.44591 0.722488,-0.45156 0.80151,-0.45156 0.03951,0 0.06209,0.0282 0.06209,0.0734 0,0.0847 -0.04516,0.29916 -0.208844,0.94262 -0.124178,0.50236 -0.146755,0.59831 -0.146755,0.70556 0,0.079 0.02258,0.1524 0.08467,0.254 0.259644,-0.11853 0.649111,-0.36125 1.044222,-0.65476 z"
         style="font-size:5.64444px;fill:url(#linearGradient1268)"
         id="path842" />
      <path
         d="m 101.64737,121.07943 c -0.56444,0.32173 -0.58702,0.33302 -0.64346,0.33302 -0.0564,0 -0.0903,-0.0621 -0.0903,-0.1524 0,-0.11853 0.0395,-0.3048 0.14675,-0.69426 0.26529,-0.94827 0.26529,-0.94827 0.26529,-0.98778 0,-0.0621 -0.0395,-0.096 -0.11289,-0.096 -0.0847,0 -0.20884,0.0508 -0.41204,0.18062 l -0.77329,0.47978 c 0.0508,-0.18626 0.13546,-0.54186 0.13546,-0.58702 0,-0.0395 -0.0339,-0.0734 -0.0734,-0.0734 -0.0621,0 -0.468484,0.20885 -0.886172,0.4572 l -0.03387,0.14676 c 0.361244,-0.16369 0.383822,-0.16934 0.434622,-0.16934 0.03951,0 0.06773,0.0339 0.06773,0.079 0,0.11853 -0.107244,0.58702 -0.248355,1.10066 l -0.129822,0.4572 -0.07902,0.3048 0.423334,-0.16369 0.333021,-1.32644 c 0.705552,-0.44591 0.722492,-0.45156 0.801512,-0.45156 0.0395,0 0.0621,0.0282 0.0621,0.0734 0,0.0847 -0.0452,0.29916 -0.20885,0.94262 -0.12417,0.50236 -0.14675,0.59831 -0.14675,0.70556 0,0.079 0.0226,0.1524 0.0847,0.254 0.25964,-0.11853 0.64911,-0.36125 1.04422,-0.65476 z"
         style="font-size:5.64444px;fill:url(#linearGradient1270)"
         id="path844" />
      <path
         d="m 103.46488,121.20361 v -0.16369 c -0.20885,0.16933 -0.6096,0.51364 -0.89747,0.51364 -0.31609,0 -0.34431,-0.33866 -0.33866,-0.5588 0.12982,-0.0621 0.68297,-0.47977 0.79586,-0.56444 0.20885,-0.16933 0.36125,-0.34996 0.36125,-0.61525 0,-0.18626 -0.11289,-0.32737 -0.32174,-0.32737 -0.2032,0 -0.37818,0.1016 -0.58138,0.25964 -0.49671,0.38382 -0.67168,1.016 -0.67168,1.54658 0,0.34431 0.14111,0.58702 0.48542,0.58702 0.43462,0 0.93698,-0.44591 1.1684,-0.67733 z m -0.49671,-1.23049 c 0,0.4064 -0.46285,0.63782 -0.73378,0.84667 0.0226,-0.28223 0.23707,-1.08374 0.5588,-1.08374 0.12418,0 0.17498,0.11289 0.17498,0.23707 z"
         style="font-size:5.64444px;fill:url(#linearGradient1272)"
         id="path846" />
      <path
         d="m 105.26544,121.23183 0.0113,-0.14111 c -0.42898,0.254 -0.6096,0.34995 -0.68862,0.34995 -0.0734,0 -0.16369,-0.14675 -0.16369,-0.26529 0,-0.079 0.096,-0.51364 0.24271,-1.10631 0.079,-0.006 0.13547,-0.006 0.16369,-0.006 l 0.22578,-0.006 c 0.0226,0 0.079,-0.006 0.16933,-0.0169 l 0.21449,-0.16369 h -0.72249 l 0.22578,-0.9144 c -0.10725,0.0564 -0.1524,0.0734 -0.23707,0.11289 -0.0395,0.0226 -0.0847,0.0395 -0.12982,0.0621 -0.0226,0.0113 -0.0508,0.0226 -0.079,0.0339 l -0.15805,0.70555 c -0.0508,0.006 -0.0847,0.006 -0.1016,0.006 h -0.13547 c 0,0 -0.0395,0 -0.0847,0.006 -0.0621,0.0395 -0.0677,0.0395 -0.16369,0.11854 -0.0169,0.0113 -0.0452,0.0339 -0.0847,0.0621 h 0.13547 0.25964 0.12418 c -0.29915,1.25307 -0.29915,1.25307 -0.29915,1.42805 0,0.18062 0.11853,0.37818 0.22577,0.37818 0.12418,0 0.508,-0.23707 1.04987,-0.64347 z"
         style="font-size:5.64444px;fill:url(#linearGradient1274)"
         id="path848" />
      <path
         d="m 107.79415,121.24312 0.0395,-0.16369 c -0.47978,0.28222 -0.5588,0.32173 -0.63218,0.32173 -0.0508,0 -0.0847,-0.0564 -0.0847,-0.14675 0,-0.11289 0.0339,-0.27658 0.12982,-0.64347 0.18063,-0.66604 0.27094,-1.01035 0.27094,-1.03293 0,-0.0564 -0.0452,-0.096 -0.11854,-0.096 -0.11853,0 -0.508,0.21449 -1.21355,0.67169 l 0.19191,-0.75635 c 0.13547,-0.55316 0.19191,-0.72814 0.26529,-0.86925 0.079,-0.15804 0.19755,-0.23142 0.34995,-0.23142 0.0734,0 0.11854,0.006 0.33867,0.0508 l 0.24271,-0.34431 c -0.1016,-0.0226 -0.14675,-0.0282 -0.23142,-0.0282 -0.31044,0 -0.47413,0.0847 -0.88618,0.44591 -0.29351,0.25964 -0.33866,0.3556 -0.51364,1.10066 l -0.54187,2.33116 0.40076,-0.16369 0.33302,-1.31516 c 0.0564,-0.0395 0.12418,-0.079 0.13547,-0.0847 0.38946,-0.24836 0.62653,-0.37254 0.68862,-0.37254 0.0395,0 0.0677,0.0395 0.0677,0.0903 0,0.0677 -0.0226,0.17497 -0.1016,0.47977 -0.17498,0.67734 -0.24271,1.00471 -0.24271,1.15711 0,0.0677 0.0226,0.13547 0.0847,0.24271 0.31044,-0.15804 0.71684,-0.41768 1.02729,-0.64346 z"
         style="font-size:5.64444px;fill:url(#linearGradient1276)"
         id="path850" />
      <path
         d="m 116.20204,124.21381 -0.47934,-0.87161 c -2.83236,6.2847 -3.31169,6.55992 -10.80659,6.51407 h -8.235661 l 1.17652,-1.19273 c 2.309471,-2.24781 2.614491,-2.84416 3.703871,-7.61502 1.26368,-5.68833 1.87371,-8.21139 2.4402,-10.00045 0.65361,-1.9267 1.78658,-2.7983 3.61671,-2.7983 0.5665,0 0.95867,0 2.57093,0.0918 l 1.69944,-2.56893 c -0.87151,-0.0918 -1.30727,-0.13756 -1.91732,-0.13756 -0.82791,0 -1.5687,0.0916 -2.30947,0.27523 -1.17652,0.32113 -3.26811,1.88082 -5.01113,3.71578 -2.13516,2.29369 -2.875931,4.40385 -4.575351,12.93637 -1.17654,5.87181 -2.30949,7.56914 -5.05471,7.56914 -0.3486,0 -0.87151,0 -1.35082,-0.0459 -0.61005,0.64223 -0.871506,0.96336 -1.525118,1.83496 l 4.270338,-0.13755 6.666971,0.22937 8.58428,0.36698 c 2.26591,0 3.22455,-0.5046 4.0089,-2.20193 0.5229,-1.05509 1.87372,-4.22038 2.52735,-5.96356 z"
         style="font-size:22.5778px;opacity:0.398353;fill:#ff00ff;fill-opacity:1;stroke-width:0.524765"
         id="path852" />
      <path
         d="m 108.27413,128.09636 v -0.16369 c -0.20885,0.16933 -0.6096,0.51364 -0.89747,0.51364 -0.31609,0 -0.34431,-0.33866 -0.33866,-0.5588 0.12982,-0.0621 0.68297,-0.47977 0.79586,-0.56444 0.20885,-0.16933 0.36125,-0.34996 0.36125,-0.61525 0,-0.18626 -0.11289,-0.32737 -0.32174,-0.32737 -0.2032,0 -0.37818,0.1016 -0.58137,0.25964 -0.49672,0.38382 -0.67169,1.016 -0.67169,1.54658 0,0.34431 0.14111,0.58702 0.48542,0.58702 0.43462,0 0.93698,-0.44591 1.1684,-0.67733 z m -0.49671,-1.23049 c 0,0.4064 -0.46285,0.63782 -0.73378,0.84667 0.0226,-0.28223 0.23707,-1.08374 0.5588,-1.08374 0.12418,0 0.17498,0.11289 0.17498,0.23707 z"
         style="font-size:5.64444px;fill:url(#linearGradient978)"
         id="path854" />
      <path
         d="m 110.19323,128.09636 v -0.16369 c -0.20885,0.16933 -0.6096,0.51364 -0.89747,0.51364 -0.31609,0 -0.34431,-0.33866 -0.33867,-0.5588 0.12983,-0.0621 0.68298,-0.47977 0.79587,-0.56444 0.20884,-0.16933 0.36124,-0.34996 0.36124,-0.61525 0,-0.18626 -0.11289,-0.32737 -0.32173,-0.32737 -0.2032,0 -0.37818,0.1016 -0.58138,0.25964 -0.49671,0.38382 -0.67169,1.016 -0.67169,1.54658 0,0.34431 0.14112,0.58702 0.48543,0.58702 0.43462,0 0.93697,-0.44591 1.1684,-0.67733 z m -0.49672,-1.23049 c 0,0.4064 -0.46284,0.63782 -0.73377,0.84667 0.0226,-0.28223 0.23706,-1.08374 0.5588,-1.08374 0.12417,0 0.17497,0.11289 0.17497,0.23707 z"
         style="font-size:5.64444px;fill:url(#linearGradient980)"
         id="path856" />
    </g>
  </g>
</svg>
